<svg width="160" height="47" viewBox="0 0 160 47" fill="none" xmlns="http://www.w3.org/2000/svg">
<path fill-rule="evenodd" clip-rule="evenodd" d="M26.6046 4.22414C25.1108 2.73101 22.6895 2.7315 21.1964 4.22525L8.73506 16.6917L8.72444 16.6886L8.68506 16.6928C8.70128 16.7006 8.7172 16.7083 8.7328 16.7161C6.54682 16.9451 5.61934 17.602 5.60884 18.4456C5.61254 18.7594 5.74129 19.0983 5.97778 19.4501L5.96641 19.4615C7.95369 22.4588 17.7986 26.4127 24.7636 23.7338C19.5436 26.3438 7.25026 26.8611 3.63951 21.7935C2.85537 22.6418 2.52729 23.7566 2.65084 24.8279C3.6047 30.0853 14.2689 31.5196 24.9332 23.9023L27.2409 26.21C24.3693 29.1602 20.1276 46.2967 26.4303 43.6803C26.5798 43.5788 26.7067 43.488 26.8793 43.3574L27.1602 43.0922C27.144 43.0962 27.1279 43.1 27.1119 43.1038L43.9919 27.1681C45.5592 25.6884 45.5947 23.2065 44.0702 21.6826L26.6046 4.22414ZM24.7664 9.41743L25.3433 7.10974L25.9202 9.41743L27.651 9.99436L25.9202 10.5713L25.3433 12.879L24.7664 10.5713L23.0356 9.99436L24.7664 9.41743ZM17.6255 16.9508L18.0101 15.4123L18.3947 16.9508L19.5486 17.3354L18.3947 17.72L18.0101 19.2585L17.6255 17.72L16.4717 17.3354L17.6255 16.9508ZM31.0211 29.9277L30.6365 31.4661L29.4827 31.8508L30.6365 32.2354L31.0211 33.7738L31.4057 32.2354L32.5596 31.8508L31.4057 31.4661L31.0211 29.9277Z" fill="#4845D2"/>
<path d="M54.898 12.7755H51.3159V28.9387H61.2323V25.7716H54.898V12.7755Z" fill="#4845D2"/>
<path d="M61.5744 23.4563C61.5744 26.9074 63.8897 29.2008 67.3844 29.2008C70.8574 29.2008 73.1726 26.9074 73.1726 23.4563C73.1726 20.0052 70.8574 17.69 67.3844 17.69C63.8897 17.69 61.5744 20.0052 61.5744 23.4563ZM64.96 23.4345C64.96 21.7963 65.921 20.7042 67.3844 20.7042C68.826 20.7042 69.7871 21.7963 69.7871 23.4345C69.7871 25.0945 68.826 26.1866 67.3844 26.1866C65.921 26.1866 64.96 25.0945 64.96 23.4345Z" fill="#4845D2"/>
<path d="M73.7137 23.2816C73.7137 26.5797 75.8543 28.8076 78.8903 28.8076C80.3538 28.8076 81.6206 28.2834 82.254 27.4316V28.9387C82.254 30.4458 81.3148 31.4506 79.6548 31.4506C78.1695 31.4506 77.143 30.7516 77.0774 29.5066H73.6701C73.9758 32.499 76.2911 34.5085 79.4582 34.5085C83.1933 34.5085 85.5522 32.084 85.5522 28.2397V18.0176H82.5161L82.3414 19.1315C81.7298 18.236 80.4411 17.6463 78.9559 17.6463C75.898 17.6463 73.7137 19.9397 73.7137 23.2816ZM77.1211 23.1942C77.1211 21.6216 78.1696 20.5731 79.5019 20.5731C81.0527 20.5731 82.1885 21.5997 82.1885 23.1942C82.1885 24.7887 81.0746 25.8808 79.5238 25.8808C78.1914 25.8808 77.1211 24.7887 77.1211 23.1942Z" fill="#4845D2"/>
<path d="M86.5326 23.4563C86.5326 26.9074 88.8478 29.2008 92.3426 29.2008C95.8155 29.2008 98.1308 26.9074 98.1308 23.4563C98.1308 20.0052 95.8155 17.69 92.3426 17.69C88.8478 17.69 86.5326 20.0052 86.5326 23.4563ZM89.9181 23.4345C89.9181 21.7963 90.8792 20.7042 92.3426 20.7042C93.7842 20.7042 94.7452 21.7963 94.7452 23.4345C94.7452 25.0945 93.7842 26.1866 92.3426 26.1866C90.8792 26.1866 89.9181 25.0945 89.9181 23.4345Z" fill="#4845D2"/>
<path d="M101.031 16.3139C102.079 16.3139 102.931 15.4621 102.931 14.3918C102.931 13.3215 102.079 12.4915 101.031 12.4915C99.9606 12.4915 99.1087 13.3215 99.1087 14.3918C99.1087 15.4621 99.9606 16.3139 101.031 16.3139ZM99.3271 28.9387H102.713V18.0176H99.3271V28.9387Z" fill="#4845D2"/>
<path d="M104.683 34.1808H108.003V27.8466C108.637 28.6766 110.078 29.2445 111.586 29.2445C114.84 29.2445 116.806 26.7545 116.718 23.3034C116.631 19.7868 114.6 17.6681 111.564 17.6681C110.013 17.6681 108.55 18.3452 107.938 19.35L107.763 18.0176H104.683V34.1808ZM108.069 23.4781C108.069 21.84 109.161 20.7479 110.734 20.7479C112.328 20.7479 113.333 21.8618 113.333 23.4781C113.333 25.0945 112.328 26.2084 110.734 26.2084C109.161 26.2084 108.069 25.1163 108.069 23.4781Z" fill="#4845D2"/>
<path d="M117.077 25.4876C117.164 27.6937 118.912 29.2226 121.664 29.2226C124.307 29.2226 126.142 27.8247 126.142 25.575C126.142 23.9587 125.18 22.8884 123.389 22.4516L121.445 21.971C120.746 21.7963 120.31 21.6216 120.31 21.0537C120.31 20.4858 120.768 20.1144 121.445 20.1144C122.21 20.1144 122.712 20.6168 122.69 21.3595H125.727C125.639 19.0879 123.914 17.6681 121.511 17.6681C119.086 17.6681 117.274 19.1097 117.274 21.2939C117.274 22.7574 118.082 23.9587 120.244 24.5266L122.166 25.0289C122.734 25.1818 122.974 25.4439 122.974 25.8153C122.974 26.3613 122.472 26.7108 121.62 26.7108C120.637 26.7108 120.113 26.2521 120.113 25.4876H117.077Z" fill="#4845D2"/>
<path d="M131.29 29.2226C132.623 29.2226 133.955 28.6111 134.632 27.7155L134.851 28.9387H138.018V18.0176H134.654V23.6966C134.654 25.3347 134.173 26.2303 132.623 26.2303C131.421 26.2303 130.635 25.6842 130.635 23.6529V18.0176H127.271V24.876C127.271 27.4753 128.713 29.2226 131.29 29.2226Z" fill="#4845D2"/>
<path d="M143.352 28.9387V22.9758C143.352 21.141 144.335 20.6168 145.296 20.6168C146.366 20.6168 147.065 21.2721 147.065 22.6263V28.9387H150.385V22.9758C150.385 21.1192 151.346 20.595 152.307 20.595C153.377 20.595 154.098 21.2502 154.098 22.6263V28.9387H157.375V21.7963C157.375 19.3063 156.064 17.6463 153.246 17.6463C151.674 17.6463 150.385 18.4108 149.817 19.5902C149.162 18.4108 148.026 17.6463 146.213 17.6463C145.012 17.6463 143.898 18.1923 143.243 19.066L143.112 18.0176H139.966V28.9387H143.352Z" fill="#4845D2"/>
<path fill-rule="evenodd" clip-rule="evenodd" d="M45.2918 5.75128C41.6831 5.75128 38.2608 7.35419 35.9505 10.1265L27.7315 19.9894L32.4775 12.8703L24.5995 16.2466C23.599 16.6754 23.348 17.9789 24.1176 18.7486L26.6528 21.2837L25.3584 22.837L28.2061 25.6846L29.7593 24.3902L32.2945 26.9254C33.0641 27.695 34.3677 27.444 34.7964 26.4436L38.1727 18.5656L31.0537 23.3116L40.9166 15.0925C43.6889 12.7823 45.2918 9.36 45.2918 5.75128ZM37.4609 13.5824C38.2472 14.3687 39.5221 14.3687 40.3085 13.5824C41.0948 12.796 41.0948 11.5211 40.3085 10.7348C39.5221 9.94841 38.2472 9.94841 37.4609 10.7348C36.6745 11.5211 36.6745 12.796 37.4609 13.5824Z" fill="#A3A2FF"/>
<path opacity="0.6" d="M3.54793 21.6609C5.43339 28.1207 16.8966 27.7839 24.7614 23.7348C19.495 26.3664 7.03695 26.869 3.54793 21.6609Z" fill="#424242"/>
<path opacity="0.6" d="M26.4303 43.6803C21.1195 45.8849 23.2955 34.0645 25.8299 28.5245C23.9825 33.4487 22.4055 44.3038 27.1602 43.0922L26.8793 43.3574C26.7067 43.488 26.5798 43.5788 26.4303 43.6803Z" fill="#424242"/>
</svg>
