<svg width="103" height="53" viewBox="0 0 103 53" fill="none" xmlns="http://www.w3.org/2000/svg">
<path d="M8.03122 11.6781C7.39592 10.0635 7.67172 8.207 8.25692 6.6456C8.87262 5.0026 9.94472 3.3641 11.5471 2.5C11.6266 4.2314 11.0977 5.942 10.5198 7.4845C10.0001 8.8719 9.36242 10.35 8.30942 11.4974C8.14762 12.3668 8.02362 13.2338 7.93642 14.0968C8.28542 13.1851 8.85132 12.3541 9.55742 11.6859C10.4665 10.8255 11.8188 10.1616 13.0882 10.5542C12.7164 11.9574 11.8689 13.3025 10.8652 14.2461C10.0752 14.9888 9.03232 15.9405 7.80392 15.9779C7.75332 17.2479 7.78192 18.5063 7.88642 19.7476C8.05972 18.8392 8.43102 17.9838 8.96752 17.3468C9.70452 16.4715 10.7973 15.4021 12.1929 15.581C12.1167 17.0012 11.5502 18.4563 10.7613 19.5497C10.1344 20.4186 9.30682 21.526 8.13212 21.8121C8.32022 23.0318 8.58222 24.2313 8.91462 25.405C8.91782 24.5063 9.11632 23.6242 9.51012 22.9167C10.0651 21.919 10.9295 20.6748 12.3267 20.5775C12.5315 21.9708 12.254 23.4939 11.6942 24.7053C11.2468 25.6736 10.6503 26.9084 9.56302 27.4193C10.0196 28.6821 10.5599 29.9096 11.1794 31.0944C10.9619 30.0732 10.9706 28.9971 11.228 28.0289C11.5827 26.6941 12.4632 25.292 13.8768 24.8851C14.3765 26.3587 14.3076 28.0033 14.0173 29.5011C13.7784 30.7343 13.309 32.1827 12.2568 32.9838C12.9447 34.0939 13.7057 35.1593 14.5356 36.173C14.0897 35.1788 13.8681 34.0915 13.987 33.096C14.1602 31.6458 14.5677 30.0944 16.049 29.3212C16.8894 30.7712 17.0841 32.3979 17.1555 34.0046C17.2132 35.3035 17.0261 36.9056 16.124 37.9623C17.1163 38.994 18.187 39.9596 19.3306 40.85C18.5923 39.9029 18.0753 38.7915 17.9658 37.6924C17.8112 36.1395 17.8868 34.43 19.2649 33.2904C20.4435 34.5214 21.1468 36.3343 21.4915 37.9089C21.7963 39.3011 22.1145 40.9489 21.3888 42.319C22.8442 43.269 24.3979 44.106 26.0406 44.8148C24.8847 43.9911 23.9385 42.861 23.4877 41.6942C22.897 40.1647 22.5316 38.3422 23.6823 36.8104C25.224 37.7979 26.3571 39.4827 27.2498 41.0193C28.0158 42.3378 28.8087 44.1576 28.4153 45.7279C29.3248 46.0365 30.2578 46.3075 31.2131 46.5387L31.1563 46.7732C30.1974 46.5411 29.2608 46.2692 28.3476 45.9597C27.7078 47.8504 25.6119 48.475 23.9169 48.7508C21.5018 49.1437 18.6261 48.3824 16.5643 46.8488C17.6525 45.3109 19.8728 45.1549 21.547 45.0372L21.5688 45.0357C23.4029 44.9068 25.3866 45.079 27.231 45.5582C25.1003 44.7471 23.1066 43.7273 21.2682 42.5284L21.2411 42.5712C20.2337 44.2047 18.2111 44.2684 16.6235 44.1651C14.4692 44.0249 11.982 42.715 10.5425 40.9043C11.8965 39.7163 13.8964 40.0488 15.446 40.3064L15.4535 40.3076C17.183 40.5951 19.0729 41.2223 20.6593 42.188C20.5082 42.069 20.3603 41.9431 20.2166 41.8111C18.6742 40.7114 17.2514 39.4813 15.9603 38.1401C15.9453 38.1551 15.9301 38.17 15.9148 38.1848C14.6594 39.4477 12.831 39.117 11.4041 38.706C9.49462 38.156 7.51432 36.4967 6.56532 34.5918C8.03592 33.7678 9.79412 34.4468 11.1617 34.9839C12.6627 35.5734 14.2508 36.5164 15.4719 37.7185C15.346 37.5597 15.2259 37.3938 15.1124 37.2221C13.9774 35.9411 12.9564 34.5694 12.0588 33.1223L12.0138 33.1505C10.5936 34.067 8.98452 33.4033 7.70922 32.7506C5.98012 31.8657 4.59062 29.9209 3.99022 28.0083C5.52412 27.517 7.03962 28.4813 8.21772 29.245C9.50622 30.0802 10.8114 31.2714 11.7073 32.6375C11.6415 32.5029 11.5802 32.3653 11.5237 32.2251C10.6629 30.7233 9.93162 29.1467 9.33962 27.5112L9.30912 27.5216L9.30662 27.5225C8.01532 28.0134 6.57732 27.2502 5.63982 26.4132C4.33682 25.25 3.41842 23.4617 3.20312 21.7146C4.54942 21.5402 5.81782 22.5818 6.68502 23.4702C7.68322 24.4927 8.57912 25.7012 9.12992 27.0435C9.08972 26.8977 9.05522 26.7496 9.02622 26.6C8.52502 25.0631 8.14532 23.4781 7.89502 21.8577L7.87552 21.8601L7.86892 21.8612C6.50372 22.0891 5.24152 21.0512 4.48742 20.0439C3.42942 18.6304 2.88402 16.6741 3.02072 14.901C4.38062 14.9961 5.41612 16.2898 6.08762 17.3363C6.86482 18.5478 7.50932 19.9189 7.79162 21.3533C7.78302 21.2392 7.77792 21.1244 7.77612 21.0093C7.56882 19.3601 7.49492 17.6771 7.56252 15.9733L7.55862 15.9731C6.17062 15.9231 5.14482 14.6344 4.61522 13.4913C3.85742 11.8555 3.73542 9.7878 4.24122 8.0452C5.56412 8.4165 6.30162 9.934 6.73692 11.1021C7.23882 12.4489 7.58912 13.9178 7.59192 15.3782C7.66412 14.153 7.80952 12.9181 8.03122 11.6781Z" fill="#394149"/>
<path d="M35.3684 8.6554V14.5052C35.3684 17.0781 33.0382 18.316 29.5065 18.316C26.2054 18.316 23.8388 17.0903 23.8388 14.2018V8.6554H27.1278V14.2018C27.1278 15.2334 28.0137 15.8766 29.64 15.8766C31.1935 15.8766 32.1159 15.2091 32.1159 14.2139V8.6554H35.3684Z" fill="#394149"/>
<path d="M46.3223 15.646V18.1825H37.2321V8.6554H40.5211V15.646H46.3223Z" fill="#394149"/>
<path d="M56.0968 11.0463V8.6554H44.7249V11.0463H48.7421V18.1825H52.0675V11.0463H56.0968Z" fill="#394149"/>
<path fill-rule="evenodd" clip-rule="evenodd" d="M67.763 9.6264C68.2 10.0754 68.407 10.6944 68.407 11.556C68.407 12.2964 68.225 12.9275 67.921 13.3522C67.581 13.8134 67.059 14.2018 66.416 14.2989L69.293 18.1825H65.676L63.309 14.8207H60.3602V18.1825H57.1197V8.6554H64.705C66.21 8.6554 67.193 9.0195 67.763 9.6264ZM65.142 12.3571C65.227 12.2114 65.251 12.0172 65.251 11.8595C65.251 11.6774 65.227 11.4832 65.142 11.3619C64.972 11.0463 64.632 10.9614 64.122 10.9614H60.3723V12.6969H64.183C64.705 12.6969 65.021 12.5998 65.142 12.3571Z" fill="#394149"/>
<path fill-rule="evenodd" clip-rule="evenodd" d="M73.671 16.4228H78.817L79.654 18.1825H83.162L78.356 8.6554H74.436L69.351 18.1825H72.785L73.671 16.4228ZM77.785 14.2867H74.739L75.941 11.993L76.305 11.1191L76.645 11.9808L77.785 14.2867Z" fill="#394149"/>
<path fill-rule="evenodd" clip-rule="evenodd" d="M67.416 19.9768C65.38 19.9768 64.309 20.9418 64.309 22.3598C64.309 23.9603 65.433 24.7722 67.416 24.7722C69.599 24.7722 70.517 23.8308 70.517 22.3598C70.517 20.8653 69.481 19.9768 67.416 19.9768ZM67.416 23.5896C66.257 23.5896 65.921 23.113 65.921 22.3775C65.921 21.6538 66.286 21.1772 67.41 21.1772C68.64 21.1772 68.916 21.7126 68.916 22.3775C68.916 23.0836 68.581 23.5896 67.416 23.5896Z" fill="#394149"/>
<path d="M61.2913 24.7016V21.9656H58.2199V22.96H59.8615C59.8498 23.0365 59.7909 23.1836 59.7144 23.2718C59.5438 23.4719 59.0907 23.6484 58.5023 23.6484C57.8904 23.6484 57.4962 23.4895 57.2844 23.2424C57.1432 23.06 57.0608 22.8011 57.0608 22.4128C57.0608 22.0068 57.1432 21.7303 57.302 21.5479C57.5315 21.289 57.9198 21.1772 58.4906 21.1772C59.0025 21.1772 59.3555 21.2948 59.5203 21.4419C59.6262 21.5302 59.7085 21.6538 59.7262 21.7361H61.2501C61.2443 21.589 61.1972 21.3537 61.1148 21.1831C60.75 20.4417 59.9027 20.0004 58.4612 20.0004C57.2079 20.0004 56.3665 20.3828 55.9017 20.9595C55.5957 21.3537 55.4545 21.8479 55.4545 22.401C55.4545 23.013 55.6192 23.5366 55.8899 23.8838C56.3488 24.4781 57.1667 24.7722 58.1493 24.7722C59.0143 24.7722 59.6085 24.5663 59.9851 24.2545L60.0263 24.7016H61.2913Z" fill="#394149"/>
<path d="M45.2632 21.9068C46.4576 22.0362 46.9695 22.4599 46.9695 23.266C46.9695 24.2427 46.0163 24.7722 44.1393 24.7722C42.3918 24.7722 41.6387 24.278 41.3503 23.6308C41.2856 23.4778 41.2562 23.2895 41.2385 23.1718H42.9331C42.9449 23.2424 42.9861 23.3483 43.0449 23.4189C43.1861 23.5896 43.5803 23.6896 44.2511 23.6896C45.1161 23.6896 45.322 23.566 45.322 23.3366C45.322 23.0894 45.1102 23.0365 44.3276 22.9541C44.0158 22.9247 43.5215 22.8776 43.3156 22.86C41.8211 22.7246 41.268 22.2598 41.268 21.4655C41.268 20.6417 42.2447 20.0122 44.0275 20.0122C45.6103 20.0122 46.3458 20.4829 46.6518 21.0713C46.7459 21.2478 46.8047 21.4478 46.8224 21.589H45.1278C45.1219 21.5243 45.0984 21.4596 45.0337 21.3772C44.9042 21.2066 44.5747 21.0948 43.9863 21.0948C43.1567 21.0948 42.939 21.1948 42.939 21.4066C42.939 21.642 43.2156 21.695 44.1393 21.795C44.4982 21.8244 45.069 21.8832 45.2632 21.9068Z" fill="#394149"/>
<path fill-rule="evenodd" clip-rule="evenodd" d="M28.3707 20.477C28.6825 20.7241 28.859 21.1419 28.859 21.7479C28.859 22.2422 28.7355 22.6128 28.5001 22.8717C28.1824 23.2365 27.6587 23.4013 26.9762 23.4072C26.7643 23.4131 24.9521 23.4072 24.9521 23.4072V24.7016H23.3693V20.0828H26.9526C27.5881 20.0828 28.0706 20.2122 28.3707 20.477ZM27.1998 22.1068C27.2468 22.0245 27.2704 21.9185 27.2704 21.7714C27.2704 21.6185 27.2409 21.489 27.188 21.4184C27.088 21.2713 26.8997 21.2007 26.5937 21.2007H24.9403V22.3304H26.5819C26.9114 22.3304 27.1056 22.2539 27.1998 22.1068Z" fill="#394149"/>
<path fill-rule="evenodd" clip-rule="evenodd" d="M34.649 20.5535C34.8609 20.7712 34.9609 21.0713 34.9609 21.489C34.9609 21.8479 34.8726 22.1539 34.7255 22.3598C34.5608 22.5834 34.3078 22.7717 33.9959 22.8188L35.3904 24.7016H33.637L32.4896 23.0718H31.0598V24.7016H29.4888V20.0828H33.1663C33.8959 20.0828 34.3725 20.2593 34.649 20.5535ZM33.3781 21.8774C33.4193 21.8068 33.431 21.7126 33.431 21.6361C33.431 21.5479 33.4193 21.4537 33.3781 21.3949C33.2957 21.2419 33.131 21.2007 32.8839 21.2007H31.0657V22.0421H32.9133C33.1663 22.0421 33.3193 21.995 33.3781 21.8774Z" fill="#394149"/>
<path d="M40.7616 24.7016V23.5543H37.449V22.9541H40.6263V21.8303H37.449V21.236H40.7204V20.0828H35.8956V24.7016H40.7616Z" fill="#394149"/>
<path d="M52.6952 21.2419V20.0828H47.182V21.2419H49.1295V24.7016H50.7417V21.2419H52.6952Z" fill="#394149"/>
<path d="M54.8151 20.0828V24.7016H53.197V20.0828H54.8151Z" fill="#394149"/>
<path d="M63.67 20.0828V24.7016H62.0516V20.0828H63.67Z" fill="#394149"/>
<path d="M76.76 20.0828V22.9188C76.76 24.1662 75.63 24.7664 73.918 24.7664C72.318 24.7664 71.17 24.1721 71.17 22.7717V20.0828H72.765V22.7717C72.765 23.2718 73.194 23.5837 73.983 23.5837C74.736 23.5837 75.183 23.2601 75.183 22.7776V20.0828H76.76Z" fill="#394149"/>
<path d="M83.112 23.266C83.112 22.4599 82.6 22.0362 81.406 21.9068C81.211 21.8832 80.641 21.8244 80.282 21.795C79.358 21.695 79.081 21.642 79.081 21.4066C79.081 21.1948 79.299 21.0948 80.129 21.0948C80.717 21.0948 81.047 21.2066 81.176 21.3772C81.241 21.4596 81.264 21.5243 81.27 21.589H82.965C82.947 21.4478 82.888 21.2478 82.794 21.0713C82.488 20.4829 81.753 20.0122 80.17 20.0122C78.387 20.0122 77.41 20.6417 77.41 21.4655C77.41 22.2598 77.964 22.7246 79.458 22.86L79.554 22.8685L79.714 22.8831L80.47 22.9541C81.253 23.0365 81.464 23.0894 81.464 23.3366C81.464 23.566 81.259 23.6896 80.394 23.6896C79.723 23.6896 79.329 23.5896 79.187 23.4189C79.129 23.3483 79.087 23.2424 79.076 23.1718H77.381C77.399 23.2895 77.428 23.4778 77.493 23.6308C77.781 24.278 78.534 24.7722 80.282 24.7722C82.159 24.7722 83.112 24.2427 83.112 23.266Z" fill="#394149"/>
<path fill-rule="evenodd" clip-rule="evenodd" d="M41.9666 26.4701C40.6435 26.4701 39.9475 27.0973 39.9475 28.0189C39.9475 29.059 40.6779 29.5867 41.9666 29.5867C43.3854 29.5867 43.9819 28.9749 43.9819 28.0189C43.9819 27.0476 43.3089 26.4701 41.9666 26.4701ZM41.9666 28.8181C41.2133 28.8181 40.9953 28.5083 40.9953 28.0303C40.9953 27.56 41.2324 27.2502 41.9628 27.2502C42.762 27.2502 42.9418 27.5982 42.9418 28.0303C42.9418 28.4892 42.7238 28.8181 41.9666 28.8181Z" fill="#394149"/>
<path d="M34.6085 28.6078C34.6085 28.0839 34.2758 27.8085 33.4995 27.7244C33.3733 27.7091 33.0024 27.6709 32.7691 27.6518C32.1687 27.5867 31.989 27.5523 31.989 27.3994C31.989 27.2617 32.1305 27.1967 32.6697 27.1967C33.0521 27.1967 33.2662 27.2693 33.3504 27.3802C33.3924 27.4338 33.4077 27.4758 33.4116 27.5179H34.5129C34.5014 27.4261 34.4632 27.2961 34.402 27.1814C34.2031 26.799 33.7251 26.4931 32.6964 26.4931C31.5378 26.4931 30.903 26.9022 30.903 27.4376C30.903 27.9539 31.2624 28.256 32.2337 28.3439C32.3676 28.3554 32.6888 28.386 32.8915 28.4051C33.4001 28.4586 33.5377 28.4931 33.5377 28.6537C33.5377 28.8028 33.4039 28.8831 32.8418 28.8831C32.4058 28.8831 32.1496 28.8181 32.0578 28.7072C32.0196 28.6613 31.9928 28.5925 31.9852 28.5466H30.8838C30.8953 28.6231 30.9144 28.7454 30.9565 28.8449C31.1439 29.2655 31.6334 29.5867 32.7691 29.5867C33.989 29.5867 34.6085 29.2426 34.6085 28.6078Z" fill="#394149"/>
<path fill-rule="evenodd" clip-rule="evenodd" d="M26.9731 28.6919C26.9731 28.8984 26.9157 29.1011 26.801 29.2349C26.6251 29.4491 26.2962 29.5408 25.8718 29.5408H23.2064V26.5389H25.7991C26.2121 26.5389 26.476 26.6384 26.6213 26.7875C26.7513 26.9175 26.8087 27.0896 26.8087 27.2846C26.8087 27.4797 26.7628 27.6403 26.6634 27.7588C26.583 27.8583 26.4454 27.9347 26.3001 27.9539C26.5142 27.9806 26.7169 28.0877 26.8316 28.2368C26.9272 28.3477 26.9731 28.516 26.9731 28.6919ZM25.6844 27.6403C25.7226 27.5982 25.7456 27.537 25.7456 27.4644C25.7456 27.3917 25.7226 27.3305 25.6729 27.2885C25.6194 27.2387 25.5199 27.2196 25.3746 27.2196H24.2083V27.7091H25.4014C25.5314 27.7091 25.6309 27.69 25.6844 27.6403ZM25.5123 28.8602C25.692 28.8602 25.7991 28.8372 25.8603 28.7799C25.8985 28.7416 25.9138 28.6843 25.9138 28.6116C25.9138 28.5351 25.8947 28.4778 25.8488 28.4319C25.7915 28.3822 25.692 28.3592 25.5238 28.3592H24.2083V28.8602H25.5123Z" fill="#394149"/>
<path d="M30.5739 28.7952V29.5408H27.4114V26.5389H30.5471V27.2885H28.4209V27.6747H30.4859V28.4051H28.4209V28.7952H30.5739Z" fill="#394149"/>
<path d="M38.3297 26.5389V27.2923H37.0601V29.5408H36.0124V27.2923H34.7466V26.5389H38.3297Z" fill="#394149"/>
<path d="M47.4812 26.5389V27.2999H45.443V27.7244H47.3856V28.4778H45.443V29.5408H44.4143V26.5389H47.4812Z" fill="#394149"/>
<path d="M52.6625 27.2923V26.5389H49.0794V27.2923H50.3452V29.5408H51.393V27.2923H52.6625Z" fill="#394149"/>
<path d="M56.5719 26.5389V29.5408H55.547V28.451H54.0097V29.5408H52.9849V26.5389H54.0097V27.6326H55.547V26.5389H56.5719Z" fill="#394149"/>
<path d="M60.3412 29.5408V28.7952H58.1882V28.4051H60.2532V27.6747H58.1882V27.2885H60.3144V26.5389H57.1787V29.5408H60.3412Z" fill="#394149"/>
<path d="M66.681 26.5389H67.671L66.574 29.5408H65.45C65.45 29.5408 64.849 27.7474 64.845 27.6976C64.842 27.7474 64.237 29.5408 64.237 29.5408H63.117L61.9927 26.5389H63.105C63.105 26.5389 63.756 28.428 63.756 28.4739C63.756 28.428 64.356 26.5389 64.356 26.5389H65.431C65.431 26.5389 66.035 28.428 66.035 28.4739C66.035 28.428 66.681 26.5389 66.681 26.5389Z" fill="#394149"/>
<path fill-rule="evenodd" clip-rule="evenodd" d="M69.635 26.4701C68.312 26.4701 67.616 27.0973 67.616 28.0189C67.616 29.059 68.346 29.5867 69.635 29.5867C71.054 29.5867 71.65 28.9749 71.65 28.0189C71.65 27.0476 70.977 26.4701 69.635 26.4701ZM69.635 28.8181C68.882 28.8181 68.664 28.5083 68.664 28.0303C68.664 27.56 68.901 27.2502 69.631 27.2502C70.431 27.2502 70.61 27.5982 70.61 28.0303C70.61 28.4892 70.392 28.8181 69.635 28.8181Z" fill="#394149"/>
<path fill-rule="evenodd" clip-rule="evenodd" d="M75.437 26.8449C75.574 26.9864 75.639 27.1814 75.639 27.4529C75.639 27.6862 75.582 27.885 75.486 28.0189C75.379 28.1642 75.215 28.2866 75.012 28.3171L75.918 29.5408H74.779L74.033 28.4816H73.104V29.5408H72.083V26.5389H74.473C74.947 26.5389 75.257 26.6537 75.437 26.8449ZM74.611 27.7053C74.637 27.6594 74.645 27.5982 74.645 27.5485C74.645 27.4911 74.637 27.43 74.611 27.3917C74.557 27.2923 74.45 27.2655 74.289 27.2655H73.108V27.8124H74.308C74.473 27.8124 74.572 27.7818 74.611 27.7053Z" fill="#394149"/>
<path d="M79.111 29.5408V28.7416H77.283V26.5389H76.247V29.5408H79.111Z" fill="#394149"/>
<path fill-rule="evenodd" clip-rule="evenodd" d="M83.166 27.9844C83.166 28.451 83.12 28.7034 82.983 28.9405C82.776 29.319 82.367 29.5408 81.644 29.5408H79.518V26.5389H81.621C82.34 26.5389 82.765 26.7416 82.975 27.0896C83.124 27.3229 83.166 27.5714 83.166 27.9844ZM81.449 28.8028C81.774 28.8028 81.958 28.7263 82.069 28.5581C82.138 28.4548 82.157 28.2139 82.157 28.0036C82.153 27.8124 82.13 27.6097 82.069 27.5179C81.95 27.3382 81.771 27.2732 81.457 27.2732H80.543V28.8028H81.449Z" fill="#394149"/>
<path d="M42.1449 44.1405H40.5603C40.5603 44.1405 39.5263 47.163 39.5263 47.2364C39.5263 47.163 38.5596 44.1405 38.5596 44.1405H36.8403C36.8403 44.1405 35.8797 47.163 35.8797 47.2364C35.8797 47.163 34.8396 44.1405 34.8396 44.1405H33.0591L34.8579 48.9434H36.6506C36.6506 48.9434 37.6173 46.0739 37.6234 45.9944C37.6296 46.0739 38.5901 48.9434 38.5901 48.9434H40.3889L42.1449 44.1405Z" fill="#394149"/>
<path d="M44.3133 48.9434V44.1405H42.6307V48.9434H44.3133Z" fill="#394149"/>
<path d="M50.8579 44.1405V48.9434H49.2181L46.8381 46.2697V48.9434H45.2596V44.1405H46.9849L49.2915 46.7531V44.1405H50.8579Z" fill="#394149"/>
<path d="M57.4124 48.9434V44.1405H55.8461V46.7531L53.5395 44.1405H51.8141V48.9434H53.3926V46.2697L55.7727 48.9434H57.4124Z" fill="#394149"/>
<path d="M63.429 47.7503V48.9434H58.3686V44.1405H63.386V45.3397H59.9839V45.9577H63.288V47.1263H59.9839V47.7503H63.429Z" fill="#394149"/>
<path fill-rule="evenodd" clip-rule="evenodd" d="M69.896 45.6028C69.896 45.1684 69.792 44.8564 69.572 44.63C69.284 44.3241 68.789 44.1405 68.03 44.1405H64.206V48.9434H65.84V47.2486H67.327L68.52 48.9434H70.343L68.893 46.9856C69.217 46.9366 69.48 46.7408 69.652 46.5083C69.804 46.2942 69.896 45.976 69.896 45.6028ZM68.305 45.7558C68.305 45.8353 68.293 45.9332 68.25 46.0066C68.189 46.129 68.03 46.1779 67.767 46.1779H65.846V45.303H67.736C67.993 45.303 68.165 45.3458 68.25 45.5049C68.293 45.5661 68.305 45.664 68.305 45.7558Z" fill="#394149"/>
<path d="M37.2595 35.6669L36.596 33.6247L35.9324 35.6669H33.7851L35.5223 36.929L34.8588 38.9712L36.596 37.7091L38.3331 38.9712L37.6696 36.929L39.4068 35.6669H37.2595Z" fill="#394149"/>
<path d="M44.2565 33.6234L44.9336 35.6656H47.1247L45.3521 36.9278L46.0292 38.9699L44.2565 37.7078L42.4839 38.9699L43.161 36.9278L41.3883 35.6656H43.5794L44.2565 33.6234Z" fill="#394149"/>
<path d="M52.533 35.6656L51.856 33.6234L51.1789 35.6656H48.9877L50.7604 36.9278L50.0833 38.9699L51.856 37.7078L53.6286 38.9699L52.9515 36.9278L54.7242 35.6656H52.533Z" fill="#394149"/>
<path d="M59.4558 33.6234L60.1329 35.6656H62.324L60.5514 36.9278L61.2285 38.9699L59.4558 37.7078L57.6832 38.9699L58.3603 36.9278L56.5876 35.6656H58.7788L59.4558 33.6234Z" fill="#394149"/>
<path d="M67.78 35.6656L67.116 33.6234L66.452 35.6656H64.305L66.042 36.9278L65.379 38.9699L67.116 37.7078L68.853 38.9699L68.19 36.9278L69.927 35.6656H67.78Z" fill="#394149"/>
<path d="M95.638 11.7224C96.273 10.1079 95.997 8.25123 95.412 6.68983C94.796 5.04693 93.724 3.40823 92.122 2.54413C92.042 4.27563 92.571 5.98613 93.149 7.52863C93.669 8.91593 94.306 10.3939 95.359 11.5412C95.521 12.4104 95.645 13.2772 95.732 14.14C95.383 13.2287 94.818 12.3981 94.112 11.7301C93.203 10.8696 91.85 10.2058 90.581 10.5984C90.953 12.0015 91.8 13.3467 92.804 14.2903C93.594 15.033 94.637 15.9846 95.865 16.0221C95.916 17.2922 95.887 18.5507 95.782 19.7921C95.609 18.8837 95.238 18.0283 94.701 17.3913C93.964 16.5159 92.871 15.4466 91.476 15.6255C91.552 17.0457 92.119 18.5008 92.908 19.5942C93.534 20.4631 94.362 21.5706 95.537 21.8567C95.349 23.0762 95.087 24.2755 94.754 25.4491C94.751 24.5505 94.553 23.6684 94.159 22.9609C93.604 21.9633 92.739 20.719 91.342 20.6217C91.137 22.015 91.415 23.5381 91.975 24.7495C92.422 25.7178 93.019 26.9526 94.106 27.4635C93.649 28.7265 93.109 29.9543 92.489 31.1392C92.707 30.1178 92.698 29.0415 92.441 28.073C92.086 26.7382 91.206 25.336 89.792 24.9292C89.292 26.403 89.361 28.0474 89.652 29.5452C89.891 30.7785 90.36 32.2269 91.412 33.028C90.724 34.1387 89.963 35.2046 89.132 36.2188C89.579 35.2242 89.8 34.1363 89.681 33.1404C89.508 31.69 89.101 30.1387 87.62 29.3657C86.779 30.8157 86.584 32.4424 86.513 34.0491C86.455 35.3481 86.642 36.9503 87.545 38.0071C86.552 39.0385 85.482 40.0038 84.339 40.894C85.077 39.9469 85.594 38.8356 85.703 37.7366C85.858 36.1837 85.783 34.4743 84.404 33.3346C83.226 34.5656 82.522 36.3785 82.178 37.9531C81.873 39.3452 81.555 40.9931 82.28 42.3632C80.825 43.3134 79.271 44.1505 77.628 44.8595C78.784 44.0357 79.73 42.9054 80.181 41.7384C80.772 40.209 81.137 38.3864 79.987 36.8546C78.445 37.8421 77.312 39.5268 76.419 41.0635C75.653 42.3821 74.86 44.202 75.254 45.7723C74.344 46.0809 73.411 46.3519 72.456 46.5831L72.513 46.8176C73.471 46.5855 74.408 46.3136 75.321 46.0041C75.961 47.8947 78.057 48.5195 79.752 48.7952C82.167 49.1881 85.043 48.4269 87.105 46.8932C86.016 45.3553 83.796 45.1993 82.122 45.0816L82.1 45.0801C80.266 44.9512 78.282 45.1234 76.438 45.6027C78.568 44.7916 80.562 43.7716 82.401 42.5726L82.426 42.6126C83.433 44.2488 85.457 44.3128 87.045 44.2094C89.2 44.0692 91.687 42.7593 93.126 40.9486C91.772 39.7608 89.773 40.0931 88.223 40.3506L88.215 40.352C86.486 40.6394 84.597 41.2663 83.011 42.2317C83.162 42.1128 83.309 41.9871 83.453 41.8552C84.995 40.7557 86.417 39.5258 87.708 38.1848C87.726 38.2027 87.744 38.2203 87.762 38.2378C89.018 39.4909 90.841 39.1603 92.265 38.7502C94.175 38.2002 96.155 36.5409 97.104 34.636C95.633 33.812 93.875 34.4909 92.508 35.0281C91.005 35.6181 89.416 36.5622 88.194 37.7659C88.32 37.6069 88.441 37.4407 88.555 37.2687C89.69 35.987 90.712 34.6145 91.61 33.1665L91.649 33.1906L91.659 33.1969C93.078 34.1101 94.686 33.447 95.96 32.7948C97.689 31.9099 99.079 29.9651 99.679 28.0525C98.145 27.5612 96.63 28.5255 95.452 29.2892C94.162 30.1249 92.856 31.3169 91.96 32.684C92.026 32.5491 92.088 32.4111 92.145 32.2706C93.006 30.7683 93.737 29.1913 94.329 27.5554L94.36 27.5658L94.365 27.5678C95.656 28.0565 97.093 27.2938 98.03 26.4574C99.332 25.2942 100.251 23.5059 100.466 21.7588C99.12 21.5844 97.851 22.626 96.984 23.5143C95.986 24.5375 95.089 25.7468 94.538 27.0902C94.579 26.9436 94.614 26.7947 94.643 26.6442C95.144 25.1074 95.524 23.5225 95.774 21.9023L95.812 21.9073C97.172 22.1275 98.43 21.0926 99.182 20.0881C100.24 18.6746 100.785 16.7183 100.648 14.9451C99.289 15.0403 98.253 16.3339 97.582 17.3805C96.804 18.5926 96.159 19.9645 95.877 21.3998C95.886 21.285 95.891 21.1696 95.893 21.0538C96.1 19.4045 96.174 17.7214 96.106 16.0176C97.495 15.9689 98.524 14.6793 99.054 13.5357C99.811 11.9 99.933 9.83223 99.428 8.08973C98.105 8.46103 97.367 9.97833 96.932 11.1464C96.43 12.4932 96.08 13.9623 96.077 15.4227C96.005 14.1975 95.859 12.9625 95.638 11.7224Z" fill="#394149"/>
</svg>
