<svg width="172" height="41" viewBox="0 0 172 41" fill="none" xmlns="http://www.w3.org/2000/svg">
<g clip-path="url(#clip0_4_327)">
<path d="M49.0364 29.5H60.3891V26.2673H52.4982V11.1727H49.0364V29.5Z" fill="#23216E"/>
<path d="M67.2113 29.8818C68.5859 29.8818 69.795 29.5763 70.8386 28.9654C71.8907 28.346 72.7095 27.4933 73.295 26.4073C73.8889 25.3127 74.1859 24.0527 74.1859 22.6273C74.1859 21.2103 73.8931 19.9588 73.3077 18.8727C72.7222 17.7782 71.9034 16.9212 70.8513 16.3018C69.8077 15.6824 68.5944 15.3727 67.2113 15.3727C65.8537 15.3727 64.6531 15.6782 63.6095 16.2891C62.5659 16.9 61.7471 17.7527 61.1531 18.8473C60.5592 19.9333 60.2622 21.1933 60.2622 22.6273C60.2622 24.0442 60.5507 25.3 61.1277 26.3945C61.7131 27.4806 62.5277 28.3333 63.5713 28.9527C64.615 29.5721 65.8283 29.8818 67.2113 29.8818ZM67.2113 26.6491C66.1337 26.6491 65.315 26.2885 64.755 25.5673C64.2034 24.8376 63.9277 23.8576 63.9277 22.6273C63.9277 21.4309 64.1907 20.4636 64.7168 19.7254C65.2513 18.9788 66.0828 18.6054 67.2113 18.6054C68.3059 18.6054 69.1289 18.9703 69.6804 19.7C70.2404 20.4297 70.5204 21.4054 70.5204 22.6273C70.5204 23.8067 70.2447 24.7739 69.6931 25.5291C69.1501 26.2757 68.3228 26.6491 67.2113 26.6491Z" fill="#23216E"/>
<path d="M81.0319 29.8818C81.6768 29.8818 82.2707 29.8054 82.8138 29.6527C83.3653 29.5 83.8659 29.2836 84.3156 29.0036V30.3909C84.3326 30.9 84.201 31.3242 83.921 31.6636C83.6495 32.0115 83.2847 32.2703 82.8265 32.44C82.3683 32.6182 81.8804 32.7073 81.3629 32.7073C80.8792 32.7073 80.4295 32.6012 80.0138 32.3891C79.6065 32.177 79.2925 31.8673 79.0719 31.46L75.8647 33.0127C76.3907 33.9036 77.1416 34.6206 78.1174 35.1636C79.0932 35.7151 80.1665 35.9909 81.3374 35.9909C82.3471 35.9909 83.2847 35.8551 84.1501 35.5836C85.0156 35.3206 85.7453 34.9176 86.3392 34.3745C86.9416 33.8315 87.3532 33.14 87.5738 32.3C87.6501 32.003 87.701 31.7018 87.7265 31.3963C87.7604 31.0994 87.7774 30.7812 87.7774 30.4418V15.7545H84.7483V16.5182C84.2816 16.1533 83.7513 15.8733 83.1574 15.6782C82.5719 15.4745 81.9229 15.3727 81.2101 15.3727C79.895 15.3727 78.7495 15.6867 77.7738 16.3145C76.798 16.9424 76.0386 17.8036 75.4956 18.8982C74.961 19.9842 74.6938 21.2273 74.6938 22.6273C74.6938 24.0018 74.9568 25.2363 75.4829 26.3309C76.0174 27.4254 76.7598 28.2909 77.7101 28.9273C78.6604 29.5636 79.7677 29.8818 81.0319 29.8818ZM81.5919 26.8018C80.8453 26.8018 80.2344 26.6151 79.7592 26.2418C79.2841 25.8685 78.9319 25.3679 78.7029 24.74C78.4738 24.1036 78.3592 23.3994 78.3592 22.6273C78.3592 21.8636 78.478 21.1679 78.7156 20.54C78.9532 19.9036 79.318 19.3988 79.8101 19.0254C80.3107 18.6436 80.9471 18.4527 81.7192 18.4527C82.8053 18.4527 83.5816 18.8388 84.0483 19.6109C84.515 20.3745 84.7483 21.38 84.7483 22.6273C84.7483 23.8745 84.5107 24.8842 84.0356 25.6563C83.5689 26.42 82.7544 26.8018 81.5919 26.8018Z" fill="#23216E"/>
<path d="M95.9998 29.8818C97.3744 29.8818 98.5835 29.5763 99.6271 28.9654C100.679 28.346 101.498 27.4933 102.083 26.4073C102.677 25.3127 102.974 24.0527 102.974 22.6273C102.974 21.2103 102.682 19.9588 102.096 18.8727C101.511 17.7782 100.692 16.9212 99.6398 16.3018C98.5962 15.6824 97.3828 15.3727 95.9998 15.3727C94.6422 15.3727 93.4416 15.6782 92.398 16.2891C91.3544 16.9 90.5356 17.7527 89.9416 18.8473C89.3477 19.9333 89.0507 21.1933 89.0507 22.6273C89.0507 24.0442 89.3392 25.3 89.9162 26.3945C90.5016 27.4806 91.3162 28.3333 92.3598 28.9527C93.4035 29.5721 94.6168 29.8818 95.9998 29.8818ZM95.9998 26.6491C94.9222 26.6491 94.1034 26.2885 93.5434 25.5673C92.9919 24.8376 92.7162 23.8576 92.7162 22.6273C92.7162 21.4309 92.9792 20.4636 93.5053 19.7254C94.0398 18.9788 94.8713 18.6054 95.9998 18.6054C97.0944 18.6054 97.9174 18.9703 98.4689 19.7C99.0289 20.4297 99.3089 21.4054 99.3089 22.6273C99.3089 23.8067 99.0331 24.7739 98.4816 25.5291C97.9386 26.2757 97.1113 26.6491 95.9998 26.6491Z" fill="#23216E"/>
<path d="M104.5 13.8454H107.962V10.7909H104.5V13.8454ZM104.5 29.5H107.962V15.7545H104.5V29.5Z" fill="#23216E"/>
<path d="M110.225 35.6091H113.712V29.0036C114.162 29.2836 114.658 29.5 115.201 29.6527C115.753 29.8054 116.351 29.8818 116.996 29.8818C118.26 29.8818 119.368 29.5636 120.318 28.9273C121.268 28.2909 122.006 27.4254 122.532 26.3309C123.067 25.2363 123.334 24.0018 123.334 22.6273C123.334 21.2273 123.063 19.9842 122.52 18.8982C121.985 17.8036 121.23 16.9424 120.254 16.3145C119.278 15.6867 118.133 15.3727 116.818 15.3727C116.105 15.3727 115.452 15.4745 114.858 15.6782C114.272 15.8733 113.746 16.1533 113.28 16.5182V15.7545H110.225V35.6091ZM116.436 26.8018C115.282 26.8018 114.468 26.42 113.992 25.6563C113.517 24.8842 113.28 23.8745 113.28 22.6273C113.28 21.38 113.513 20.3745 113.98 19.6109C114.455 18.8388 115.231 18.4527 116.309 18.4527C117.081 18.4527 117.713 18.6436 118.205 19.0254C118.706 19.3988 119.075 19.9036 119.312 20.54C119.55 21.1679 119.669 21.8636 119.669 22.6273C119.669 23.3994 119.554 24.1036 119.325 24.74C119.096 25.3679 118.744 25.8685 118.269 26.2418C117.794 26.6151 117.183 26.8018 116.436 26.8018Z" fill="#23216E"/>
<path d="M129.606 29.8818C131.404 29.8818 132.813 29.4788 133.831 28.6727C134.849 27.8666 135.358 26.7594 135.358 25.3509C135.358 24.2818 135.027 23.4376 134.366 22.8182C133.712 22.1988 132.601 21.6854 131.031 21.2782C129.962 21.0066 129.164 20.786 128.638 20.6163C128.121 20.4467 127.777 20.2812 127.607 20.12C127.446 19.9588 127.366 19.7594 127.366 19.5218C127.366 19.123 127.556 18.8176 127.938 18.6054C128.329 18.3933 128.842 18.3085 129.478 18.3509C130.827 18.4527 131.566 19.0297 131.693 20.0818L135.231 19.4454C135.053 18.1982 134.442 17.2097 133.398 16.48C132.355 15.7418 131.023 15.3727 129.402 15.3727C127.739 15.3727 126.411 15.763 125.418 16.5436C124.426 17.3242 123.929 18.3763 123.929 19.7C123.929 20.7521 124.273 21.5836 124.96 22.1945C125.647 22.797 126.831 23.3145 128.511 23.7473C129.504 24.0103 130.233 24.2224 130.7 24.3836C131.175 24.5448 131.481 24.7103 131.616 24.88C131.752 25.0412 131.82 25.2576 131.82 25.5291C131.82 25.9618 131.65 26.3012 131.311 26.5473C130.972 26.7848 130.488 26.9036 129.86 26.9036C129.096 26.9036 128.464 26.7212 127.964 26.3563C127.472 25.9915 127.153 25.4867 127.009 24.8418L123.471 25.3763C123.7 26.8103 124.345 27.9218 125.406 28.7109C126.475 29.4915 127.875 29.8818 129.606 29.8818Z" fill="#23216E"/>
<path d="M141.744 29.9073C142.737 29.9073 143.602 29.7418 144.341 29.4109C145.079 29.08 145.698 28.6388 146.199 28.0873V29.5H149.253V15.7545H145.766V22.7291C145.766 23.5776 145.668 24.2648 145.473 24.7909C145.287 25.3085 145.045 25.703 144.748 25.9745C144.451 26.2376 144.133 26.4157 143.793 26.5091C143.454 26.6024 143.136 26.6491 142.839 26.6491C142.101 26.6491 141.528 26.4836 141.121 26.1527C140.722 25.8218 140.433 25.4103 140.255 24.9182C140.077 24.426 139.971 23.9382 139.937 23.4545C139.903 22.9624 139.886 22.5594 139.886 22.2454V15.7545H136.373V23.4673C136.373 23.6963 136.39 24.0612 136.424 24.5618C136.458 25.0624 136.556 25.6182 136.717 26.2291C136.878 26.8315 137.145 27.4127 137.519 27.9727C137.901 28.5327 138.431 28.9951 139.11 29.36C139.788 29.7248 140.667 29.9073 141.744 29.9073Z" fill="#23216E"/>
<path d="M151.258 29.5H154.745V21.1763C154.745 20.3873 154.961 19.7467 155.394 19.2545C155.835 18.7539 156.416 18.5036 157.138 18.5036C157.893 18.5036 158.483 18.7582 158.907 19.2673C159.339 19.7679 159.556 20.4721 159.556 21.38V29.5H163.018V21.1763C163.018 20.3873 163.234 19.7467 163.667 19.2545C164.108 18.7539 164.689 18.5036 165.41 18.5036C166.166 18.5036 166.755 18.7582 167.179 19.2673C167.612 19.7679 167.829 20.4721 167.829 21.38V29.5H171.29V20.4636C171.29 18.9618 170.887 17.7485 170.081 16.8236C169.284 15.8903 168.1 15.4236 166.53 15.4236C165.648 15.4236 164.838 15.6145 164.099 15.9963C163.361 16.3782 162.772 16.9 162.33 17.5618C161.974 16.917 161.465 16.3994 160.803 16.0091C160.141 15.6188 159.318 15.4236 158.334 15.4236C157.502 15.4236 156.739 15.5891 156.043 15.92C155.347 16.2424 154.77 16.6879 154.312 17.2563V15.7545H151.258V29.5Z" fill="#23216E"/>
<path d="M20 0.5C8.9543 0.5 0 9.4543 0 20.5C11.0457 20.5 20 11.5457 20 0.5Z" fill="#45D2B0"/>
<path d="M20 40.5C31.0457 40.5 40 31.5457 40 20.5C28.9543 20.5 20 29.4543 20 40.5Z" fill="#45D2B0"/>
<path d="M20 0.5C31.0457 0.5 40 9.4543 40 20.5C28.9543 20.5 20 11.5457 20 0.5Z" fill="#23216E"/>
<path d="M20 40.5C8.9543 40.5 -9.65645e-07 31.5457 0 20.5C11.0457 20.5 20 29.4543 20 40.5Z" fill="#23216E"/>
</g><defs><clipPath id="clip0_4_327"><rect width="172" height="40" fill="white" transform="translate(0 0.5)"/></clipPath></defs>
</svg>
