<svg width="99" height="99" viewBox="0 0 99 99" fill="none" xmlns="http://www.w3.org/2000/svg">
<rect width="99" height="99" rx="16" fill="#42A7E5"/>
<path d="M50 41.0002C50 31.0595 45.4626 23 39.875 23C34.2853 23 29.75 31.0595 29.75 41.0002C29.75 45.3263 32.477 48.9916 36.2934 50.4394L35.3748 72.4998C35.3748 74.9851 37.3896 77 39.875 77C42.3604 77 44.3752 74.9851 44.3752 72.4998L43.4566 50.4414C47.2757 48.9916 50 45.3263 50 41.0002Z" fill="white"/>
<path d="M70.25 39.3127L69.6877 23H66.875L66.3127 39.3127H64.0623L63.5 23H60.125L59.5627 39.3127H57.3123L56.75 23H53.9373L53.375 39.3127C53.375 42.7444 55.4318 45.6841 58.3761 47.003L57.3123 72.4998C57.3123 74.9851 59.3271 77 61.8125 77C64.2979 77 66.3127 74.9851 66.3127 72.4998L65.2489 47.003C68.1932 45.6841 70.25 42.7444 70.25 39.3127Z" fill="white"/>
</svg>
