<svg id="Capa_1" enable-background="new 0 0 512 512" fill="#fff" height="512" viewBox="0 0 512 512" width="512" xmlns="http://www.w3.org/2000/svg"><path d="m506.502 199.289-80.837-66.179v-62.386c0-8.284-6.716-15-15-15h-79.525l-63.922-52.331c-5.496-4.499-13.396-4.526-18.923-.066l-64.922 52.397h-82.038c-8.284 0-15 6.716-15 15v63.32l-80.756 65.178c-3.528 2.848-5.579 7.139-5.579 11.673v286.105c0 8.284 6.716 15 15 15h482c8.284 0 15-6.716 15-15v-286.105c0-4.497-2.018-8.758-5.498-11.606zm-361.591 147.533-114.911 114.137v-216.593zm22.433 20.002 78.674 70.146c2.844 2.536 6.413 3.804 9.982 3.804s7.139-1.268 9.982-3.804l78.674-70.146 115.957 115.176h-409.226zm199.745-20.002 114.911-102.456v216.593zm106.826-135.44-48.25 43.02v-82.521zm-216.267-177.052 26.133 21.395h-52.641zm138.017 51.394v195.426l-139.665 124.527-139.665-124.527v-195.426zm-309.33 168.678-48.157-42.937 48.157-38.867z"/><path d="m155.335 282.502h200.33c8.284 0 15-6.716 15-15v-141.778c0-8.284-6.716-15-15-15h-200.33c-8.284 0-15 6.716-15 15v141.777c0 8.285 6.716 15.001 15 15.001zm15-47.516 61.91-22.481 68.195 39.996h-130.105zm170.33-94.262v100.591l-99.324-58.254c-3.853-2.261-8.511-2.686-12.709-1.161l-58.297 21.169v-62.344h170.33z"/><path d="m308.968 199.863c8.284 0 15-6.716 15-15v-14.746c0-8.284-6.716-15-15-15s-15 6.716-15 15v14.746c0 8.284 6.716 15 15 15z"/></svg>