<svg width="61" height="61" viewBox="0 0 61 61" fill="none" xmlns="http://www.w3.org/2000/svg">
<g clip-path="url(#clip0)">
<path d="M13.7248 9.15009C12.8824 9.15009 12.1997 8.46735 12.1997 7.62499V1.52509C12.1997 0.682724 12.8829 -7.62939e-06 13.7248 -7.62939e-06C14.5672 -7.62939e-06 15.2499 0.683189 15.2499 1.52509V7.62499C15.2499 8.46735 14.5672 9.15009 13.7248 9.15009Z" fill="white"/>
<path d="M19.8249 9.15009C18.9826 9.15009 18.3003 8.46735 18.3003 7.62499V1.52509C18.3003 0.682724 18.983 -7.62939e-06 19.8249 -7.62939e-06C20.6673 -7.62939e-06 21.35 0.683189 21.35 1.52509V7.62499C21.35 8.46735 20.6673 9.15009 19.8249 9.15009Z" fill="white"/>
<path d="M25.9252 9.15009C25.0829 9.15009 24.4001 8.46735 24.4001 7.62499V1.52509C24.4001 0.682724 25.0829 -7.62939e-06 25.9252 -7.62939e-06C26.7676 -7.62939e-06 27.4499 0.683189 27.4499 1.52509V7.62499C27.4499 8.46735 26.7671 9.15009 25.9252 9.15009Z" fill="white"/>
<path d="M35.0749 9.15009C34.2326 9.15009 33.5503 8.46735 33.5503 7.62499V1.52509C33.5503 0.682724 34.233 -7.62939e-06 35.0749 -7.62939e-06C35.9173 -7.62939e-06 36.6 0.683189 36.6 1.52509V7.62499C36.6 8.46735 35.9173 9.15009 35.0749 9.15009Z" fill="white"/>
<path d="M41.1752 9.15009C40.3329 9.15009 39.6501 8.46735 39.6501 7.62499V1.52509C39.6501 0.682724 40.3329 -7.62939e-06 41.1752 -7.62939e-06C42.0176 -7.62939e-06 42.6999 0.683189 42.6999 1.52509V7.62499C42.6999 8.46735 42.0171 9.15009 41.1752 9.15009Z" fill="white"/>
<path d="M13.7248 51.8499C14.5672 51.8499 15.2499 52.5326 15.2499 53.375V59.4749C15.2499 60.3173 14.5672 61 13.7248 61C12.8824 61 12.1997 60.3173 12.1997 59.4749V53.375C12.1997 52.5326 12.8824 51.8499 13.7248 51.8499Z" fill="white"/>
<path d="M19.8249 51.8499C20.6673 51.8499 21.35 52.5326 21.35 53.375V59.4749C21.35 60.3173 20.6673 61 19.8249 61C18.9826 61 18.3003 60.3173 18.3003 59.4749V53.375C18.3003 52.5326 18.983 51.8499 19.8249 51.8499Z" fill="white"/>
<path d="M25.9252 51.8499C26.7676 51.8499 27.4499 52.5326 27.4499 53.375V59.4749C27.4499 60.3173 26.7671 61 25.9252 61C25.0829 61 24.4001 60.3173 24.4001 59.4749V53.375C24.4001 52.5326 25.0829 51.8499 25.9252 51.8499Z" fill="white"/>
<path d="M35.0749 51.8499C35.9173 51.8499 36.6 52.5326 36.6 53.375V59.4749C36.6 60.3173 35.9173 61 35.0749 61C34.2326 61 33.5503 60.3173 33.5503 59.4749V53.375C33.5503 52.5326 34.233 51.8499 35.0749 51.8499Z" fill="white"/>
<path d="M41.1752 51.8499C42.0176 51.8499 42.6999 52.5326 42.6999 53.375V59.4749C42.6999 60.3173 42.0171 61 41.1752 61C40.3329 61 39.6501 60.3173 39.6501 59.4749V53.375C39.6501 52.5326 40.3329 51.8499 41.1752 51.8499Z" fill="white"/>
<path d="M47.2751 61C46.4327 61 45.75 60.3173 45.75 59.4749V53.375C45.75 52.5326 46.4327 51.8499 47.2751 51.8499C48.1175 51.8499 48.8002 52.5331 48.8002 53.375V59.4749C48.8002 60.3173 48.1175 61 47.2751 61Z" fill="white"/>
<path d="M47.2751 9.15009C46.4327 9.15009 45.75 8.46735 45.75 7.62499V1.52509C45.75 0.682724 46.4327 -7.62939e-06 47.2751 -7.62939e-06C48.1175 -7.62939e-06 48.8002 0.683189 48.8002 1.52509V7.62499C48.8002 8.46735 48.1175 9.15009 47.2751 9.15009Z" fill="white"/>
<path d="M7.625 48.8002H1.52509C0.682732 48.8002 0 48.1174 0 47.2751C0 46.4327 0.682732 45.75 1.52509 45.75H7.625C8.46736 45.75 9.15009 46.4327 9.15009 47.2751C9.15009 48.1174 8.46736 48.8002 7.625 48.8002Z" fill="white"/>
<path d="M7.625 42.6998H1.52509C0.682732 42.6998 0 42.0171 0 41.1752C0 40.3328 0.682732 39.6501 1.52509 39.6501H7.625C8.46736 39.6501 9.15009 40.3328 9.15009 41.1752C9.15009 42.0171 8.46736 42.6998 7.625 42.6998Z" fill="white"/>
<path d="M7.625 36.5999H1.52509C0.682732 36.5999 0 35.9172 0 35.0748C0 34.2325 0.682732 33.5502 1.52509 33.5502H7.625C8.46736 33.5502 9.15009 34.2329 9.15009 35.0748C9.15009 35.9172 8.46736 36.5999 7.625 36.5999Z" fill="white"/>
<path d="M7.625 27.4498H1.52509C0.682732 27.4498 0 26.7671 0 25.9252C0 25.0828 0.682732 24.4001 1.52509 24.4001H7.625C8.46736 24.4001 9.15009 25.0828 9.15009 25.9252C9.15009 26.7671 8.46736 27.4498 7.625 27.4498Z" fill="white"/>
<path d="M7.625 21.3499H1.52509C0.682732 21.3499 0 20.6672 0 19.8248C0 18.9825 0.682732 18.3002 1.52509 18.3002H7.625C8.46736 18.3002 9.15009 18.9829 9.15009 19.8248C9.15009 20.6672 8.46736 21.3499 7.625 21.3499Z" fill="white"/>
<path d="M53.3749 45.75H59.4749C60.3172 45.75 60.9999 46.4327 60.9999 47.2751C60.9999 48.1174 60.3172 48.8002 59.4749 48.8002H53.3749C52.5326 48.8002 51.8499 48.117 51.8499 47.2751C51.8499 46.4327 52.5326 45.75 53.3749 45.75Z" fill="white"/>
<path d="M59.4749 42.6998H53.3749C52.5326 42.6998 51.8499 42.0171 51.8499 41.1752C51.8499 40.3328 52.5331 39.6501 53.3749 39.6501H59.4749C60.3172 39.6501 60.9999 40.3328 60.9999 41.1752C60.9999 42.0171 60.3172 42.6998 59.4749 42.6998Z" fill="white"/>
<path d="M59.4749 36.5999H53.3749C52.5326 36.5999 51.8499 35.9172 51.8499 35.0748C51.8499 34.2325 52.5331 33.5502 53.3749 33.5502H59.4749C60.3172 33.5502 60.9999 34.2329 60.9999 35.0748C60.9999 35.9172 60.3172 36.5999 59.4749 36.5999Z" fill="white"/>
<path d="M59.4749 27.4498H53.3749C52.5326 27.4498 51.8499 26.7671 51.8499 25.9252C51.8499 25.0828 52.5331 24.4001 53.3749 24.4001H59.4749C60.3172 24.4001 60.9999 25.0828 60.9999 25.9252C60.9999 26.7671 60.3172 27.4498 59.4749 27.4498Z" fill="white"/>
<path d="M59.4749 21.3499H53.3749C52.5326 21.3499 51.8499 20.6672 51.8499 19.8248C51.8499 18.9825 52.5331 18.3002 53.3749 18.3002H59.4749C60.3172 18.3002 60.9999 18.9829 60.9999 19.8248C60.9999 20.6672 60.3172 21.3499 59.4749 21.3499Z" fill="white"/>
<path d="M59.4749 15.25H53.3749C52.5326 15.25 51.8499 14.5673 51.8499 13.7249C51.8499 12.8825 52.5331 12.1998 53.3749 12.1998H59.4749C60.3172 12.1998 60.9999 12.883 60.9999 13.7249C60.9999 14.5673 60.3172 15.25 59.4749 15.25Z" fill="white"/>
<path d="M7.625 15.25H1.52509C0.682732 15.25 0 14.5673 0 13.7249C0 12.8825 0.682732 12.1998 1.52509 12.1998H7.625C8.46736 12.1998 9.15009 12.883 9.15009 13.7249C9.15009 14.5673 8.46736 15.25 7.625 15.25Z" fill="white"/>
<path d="M21.3499 39.6501H39.65V21.3499H21.3499V39.6501Z" fill="white"/>
<path d="M47.275 48.8002H13.7248C12.8824 48.8002 12.1997 48.117 12.1997 47.2751V13.7249C12.1997 12.8825 12.8829 12.1998 13.7248 12.1998H47.275C48.1173 12.1998 48.8001 12.883 48.8001 13.7249V47.2751C48.8001 48.1174 48.1173 48.8002 47.275 48.8002ZM42.6997 19.8248C42.6997 18.9824 42.017 18.3002 41.1751 18.3002H19.8247C18.9823 18.3002 18.3001 18.9829 18.3001 19.8248V41.1752C18.3001 42.0175 18.9828 42.6998 19.8247 42.6998H41.1746C42.017 42.6998 42.6997 42.0171 42.6997 41.1752V19.8248Z" fill="white"/>
</g>
<defs>
<clipPath id="clip0">
<rect width="61" height="61" fill="white" transform="matrix(1 0 0 -1 0 61)"/>
</clipPath>
</defs>
</svg>
