<svg width="75" height="62" viewBox="0 0 75 62" fill="none" xmlns="http://www.w3.org/2000/svg">
<g filter="url(#filter0_df_4_71)">
<path d="M24.9764 22.9067C24.9764 20.959 25.5739 19.2935 26.7691 17.9103C27.9642 16.5271 29.5988 15.4827 31.6727 14.777C33.5709 14.1277 35.9085 13.662 38.6855 13.3797C39.6346 13.295 41.1812 13.182 43.3255 13.0409V12.3211C43.3255 10.5145 43.0794 9.30066 42.5873 8.67962C41.8491 7.83277 40.6891 7.40935 39.1073 7.40935H38.6855C37.5255 7.49403 36.5236 7.79043 35.68 8.29854C34.8364 8.80665 34.2915 9.51238 34.0455 10.4157C33.9048 10.9802 33.5533 11.3049 32.9909 11.3896L26.9273 10.7968C26.3297 10.6838 26.0309 10.4298 26.0309 10.0346C26.0309 9.9499 26.0485 9.85112 26.0836 9.73819C26.6812 7.22587 28.1488 5.3628 30.4864 4.14896C32.8239 2.93513 35.5569 2.25764 38.6855 2.11652H40.0036C44.0109 2.11652 47.1394 2.94927 49.3891 4.61473C49.742 4.8983 50.068 5.2026 50.3645 5.5251C50.6633 5.84974 50.9006 6.13907 51.0764 6.39312C51.2521 6.64718 51.4103 7.01416 51.5509 7.49403C51.6915 7.9739 51.7969 8.30561 51.8673 8.48908C51.9376 8.67255 51.9903 9.06778 52.0255 9.67468C52.0606 10.2816 52.0782 10.6415 52.0782 10.7544V21.0013C52.0782 21.7353 52.21 22.4057 52.4736 23.0126C52.7373 23.6195 52.9921 24.0571 53.2382 24.3252C53.4842 24.5934 53.8885 25.0239 54.4509 25.6167C54.6618 25.8707 54.7673 26.0965 54.7673 26.2942C54.7673 26.52 54.6267 26.7176 54.3455 26.887C51.4278 28.9194 49.846 30.0203 49.6 30.1897C49.1782 30.4437 48.6685 30.472 48.0709 30.2744C47.5788 29.9356 47.1482 29.611 46.7791 29.3005C46.41 28.99 46.1464 28.7641 45.9882 28.623C45.83 28.4819 45.5751 28.2066 45.2236 27.7973C44.8721 27.388 44.626 27.1128 44.4855 26.9716C42.5169 28.6936 40.5836 29.7663 38.6855 30.1897C37.4903 30.472 36.0139 30.6131 34.2564 30.6131C31.5497 30.6131 29.3264 29.9427 27.5864 28.6018C25.8464 27.261 24.9764 25.3626 24.9764 22.9067ZM34.0455 22.0599C34.0455 23.1608 34.3882 24.0429 35.0736 24.7063C35.7591 25.3697 36.6818 25.7014 37.8418 25.7014C37.9473 25.7014 38.0967 25.6873 38.29 25.659C38.4833 25.6308 38.6151 25.6167 38.6855 25.6167C40.1618 25.3062 41.3042 24.544 42.1127 23.3302C42.4994 22.7938 42.7894 22.2081 42.9827 21.573C43.176 20.9378 43.2815 20.4226 43.2991 20.0275C43.3167 19.6323 43.3255 18.983 43.3255 18.0797V17.0211C41.2867 17.0211 39.74 17.1341 38.6855 17.3599C35.5921 18.0656 34.0455 19.6323 34.0455 22.0599Z" fill="black"/>
<path fill-rule="evenodd" clip-rule="evenodd" d="M59.0679 36.5483C53.23 40.0746 44.7552 41.9559 37.4775 41.9559C27.7415 41.9966 18.3379 39.0597 11.109 33.7203C10.5586 33.317 11.0485 32.7651 11.7064 33.0781C19.2151 36.654 28.4964 38.8081 38.0916 38.8081C45.0075 38.7772 51.8481 37.6285 58.2203 35.4284C59.2057 35.0858 60.0341 35.9602 59.0682 36.5549M61.4954 34.286C62.2442 35.0678 60.6698 38.2945 59.9624 39.7343C59.7478 40.1692 60.2074 40.3449 60.6893 40.016C63.8189 37.871 64.6281 33.378 63.9922 32.7291C63.3565 32.0803 57.8818 31.5304 54.5403 33.4523C54.0257 33.7474 54.1137 34.1553 54.6861 34.0989C56.566 33.914 60.7554 33.5019 61.5013 34.286" fill="#FF9900"/>
</g>
<defs>
<filter id="filter0_df_4_71" x="0.870972" y="0.116516" width="73.3226" height="61.8398" filterUnits="userSpaceOnUse" color-interpolation-filters="sRGB">
<feFlood flood-opacity="0" result="BackgroundImageFix"/>
<feColorMatrix in="SourceAlpha" type="matrix" values="0 0 0 0 0 0 0 0 0 0 0 0 0 0 0 0 0 0 127 0" result="hardAlpha"/>
<feOffset dy="10"/>
<feGaussianBlur stdDeviation="5"/>
<feComposite in2="hardAlpha" operator="out"/>
<feColorMatrix type="matrix" values="0 0 0 0 0 0 0 0 0 0 0 0 0 0 0 0 0 0 0.54 0"/>
<feBlend mode="normal" in2="BackgroundImageFix" result="effect1_dropShadow_4_71"/>
<feBlend mode="normal" in="SourceGraphic" in2="effect1_dropShadow_4_71" result="shape"/>
<feGaussianBlur stdDeviation="1" result="effect2_foregroundBlur_4_71"/>
</filter>
</defs>
</svg>
