<svg width="81" height="81" viewBox="0 0 81 81" fill="none" xmlns="http://www.w3.org/2000/svg">
<g filter="url(#filter0_d_4_50)">
<path d="M64.0743 26.0663L43.2719 26.0653C42.3533 26.0653 41.6087 26.8098 41.6087 27.7284V34.3738C41.6087 35.2922 42.3533 36.0369 43.2718 36.0369H54.9865C53.7037 39.3659 51.3095 42.1539 48.2549 43.9253L53.25 52.5723C61.2628 47.9382 66 39.8072 66 30.7051C66 29.4091 65.9045 28.4826 65.7134 27.4394C65.5682 26.6468 64.8801 26.0663 64.0743 26.0663Z" fill="#167EE6"/>
<path d="M40.5 46.0217C34.7671 46.0217 29.7623 42.8894 27.0743 38.2543L18.4277 43.2381C22.8279 50.8644 31.071 56 40.5 56C45.1256 56 49.4901 54.7546 53.25 52.5842V52.5723L48.2549 43.9253C45.97 45.2505 43.326 46.0217 40.5 46.0217Z" fill="#12B347"/>
<path d="M53.25 52.5842V52.5723L48.2549 43.9252C45.97 45.2504 43.3262 46.0217 40.5 46.0217V56C45.1256 56 49.4903 54.7546 53.25 52.5842Z" fill="#0F993E"/>
<path d="M24.9783 30.5C24.9783 27.6742 25.7494 25.0305 27.0744 22.7457L18.4277 17.7619C16.2453 21.5099 15 25.8626 15 30.5C15 35.1374 16.2453 39.4902 18.4277 43.2382L27.0744 38.2543C25.7494 35.9696 24.9783 33.3258 24.9783 30.5Z" fill="#FFD500"/>
<path d="M40.5 14.9783C44.2384 14.9783 47.6724 16.3067 50.3546 18.5163C51.0163 19.0614 51.978 19.022 52.5841 18.4159L57.2926 13.7074C57.9803 13.0197 57.9313 11.894 57.1967 11.2567C52.7028 7.35805 46.8558 5 40.5 5C31.071 5 22.8279 10.1356 18.4277 17.7619L27.0743 22.7457C29.7623 18.1106 34.7671 14.9783 40.5 14.9783Z" fill="#FF4B26"/>
<path d="M50.3546 18.5163C51.0163 19.0614 51.9781 19.022 52.5841 18.4159L57.2926 13.7074C57.9803 13.0196 57.9312 11.894 57.1967 11.2567C52.7028 7.35795 46.8558 5 40.5 5V14.9783C44.2383 14.9783 47.6724 16.3067 50.3546 18.5163Z" fill="#D93F21"/>
</g>
<defs>
<filter id="filter0_d_4_50" x="0" y="0" width="81" height="81" filterUnits="userSpaceOnUse" color-interpolation-filters="sRGB">
<feFlood flood-opacity="0" result="BackgroundImageFix"/>
<feColorMatrix in="SourceAlpha" type="matrix" values="0 0 0 0 0 0 0 0 0 0 0 0 0 0 0 0 0 0 127 0" result="hardAlpha"/>
<feOffset dy="10"/>
<feGaussianBlur stdDeviation="7.5"/>
<feComposite in2="hardAlpha" operator="out"/>
<feColorMatrix type="matrix" values="0 0 0 0 0.94902 0 0 0 0 0.317647 0 0 0 0 0.247059 0 0 0 0.4 0"/>
<feBlend mode="normal" in2="BackgroundImageFix" result="effect1_dropShadow_4_50"/>
<feBlend mode="normal" in="SourceGraphic" in2="effect1_dropShadow_4_50" result="shape"/>
</filter>
</defs>
</svg>
