<?xml version="1.0" encoding="iso-8859-1"?>
<!-- Generator: Adobe Illustrator 18.0.0, SVG Export Plug-In . SVG Version: 6.00 Build 0)  -->
<!DOCTYPE svg PUBLIC "-//W3C//DTD SVG 1.1//EN" "http://www.w3.org/Graphics/SVG/1.1/DTD/svg11.dtd">
<svg xmlns="http://www.w3.org/2000/svg" xmlns:xlink="http://www.w3.org/1999/xlink" version="1.1" id="Capa_1" x="0px" y="0px" viewBox="0 0 291.843 291.843" style="enable-background:new 0 0 291.843 291.843;" xml:space="preserve" width="50px" height="50px">
<g>
	<path d="M126.328,206.944l-19.26,84.9h15.964c4.973,0,9.287-3.432,10.406-8.278l5.949-25.78h48.102   c21.909,0,40.728-17.109,44.7-40.702c1.264-7.523,2.584-15.607,3.863-23.801h-92.615   C135.188,193.281,128.153,198.9,126.328,206.944z" fill="#333232"/>
	<path d="M262.811,154.199l-19.266-38.887C240.007,50.755,203.071,0,144.291,0C46.159,0,27.299,52.424,27.299,106.035   c0,26.477,11.288,50.946,29.564,68.772L32.516,280.312c-0.645,2.796,0.02,5.733,1.806,7.978c1.786,2.245,4.498,3.553,7.367,3.553   H86.56l20.264-89.324c3.904-17.214,18.961-29.237,36.613-29.237l109.75-0.035c4.131,0,7.937-2.457,9.938-6.416   C265.125,162.871,265.005,158.034,262.811,154.199z M79.618,46.325c-0.923,0.669-20.653,15.328-19.735,42.123   c0.142,4.14-3.1,7.61-7.239,7.753c-0.088,0.003-0.175,0.004-0.262,0.004c-4.023,0-7.352-3.19-7.491-7.243   C43.689,53.862,69.798,34.902,70.91,34.112c3.38-2.4,8.06-1.605,10.458,1.771C83.761,39.252,82.977,43.922,79.618,46.325z    M94.374,37.477c-4.142,0-7.5-3.358-7.5-7.5s3.358-7.5,7.5-7.5s7.5,3.358,7.5,7.5S98.516,37.477,94.374,37.477z" fill="#333232"/>
</g>
<g>
</g>
<g>
</g>
<g>
</g>
<g>
</g>
<g>
</g>
<g>
</g>
<g>
</g>
<g>
</g>
<g>
</g>
<g>
</g>
<g>
</g>
<g>
</g>
<g>
</g>
<g>
</g>
<g>
</g>
</svg>
