<svg width="234" height="184" viewBox="0 0 234 184" fill="none" xmlns="http://www.w3.org/2000/svg">
<path d="M212.833 58.6667H193.667V50.3334H212.833C215.333 50.3334 217 52.0001 217 54.5001C217 57.0001 215.333 58.6667 212.833 58.6667Z" fill="url(#paint0_radial)"/>
<path d="M121.167 42.0001H71.1667C68.6667 42.0001 67 40.3334 67 37.8334C67 35.3334 68.6667 33.6667 71.1667 33.6667H121.167V42.0001Z" fill="url(#paint1_radial)"/>
<path d="M125.333 58.6667H71.1667C68.6667 58.6667 67 57.0001 67 54.5001C67 52.0001 68.6667 50.3334 71.1667 50.3334H121.167L125.333 58.6667Z" fill="url(#paint2_radial)"/>
<path d="M143.667 31.1667C142.833 31.1667 141.167 31.1667 140.333 30.3334C138.667 28.6667 138.667 26.1667 140.333 24.5C148.667 16.1667 163.667 15.3334 172.833 22C174.5 23.6667 175.333 26.1667 173.667 27.8334C172 29.5001 169.5 30.3334 167.833 28.6667C161.167 23.6667 152 24.5 146.167 30.3334C146.167 31.1667 145.333 31.1667 143.667 31.1667Z" fill="#122261"/>
<path d="M46.1667 67H29.5C22.8333 67 17 61.1667 17 54.5V37.8334C17 31.1667 22.8333 25.3334 29.5 25.3334H46.1667C52.8333 25.3334 58.6667 31.1667 58.6667 37.8334V54.5C58.6667 61.1667 52.8333 67 46.1667 67ZM29.5 33.6667C27 33.6667 25.3333 35.3334 25.3333 37.8334V54.5C25.3333 57 27 58.6667 29.5 58.6667H46.1667C48.6667 58.6667 50.3333 57 50.3333 54.5V37.8334C50.3333 35.3334 48.6667 33.6667 46.1667 33.6667H29.5Z" fill="#364B9D"/>
<path d="M63.1667 125.333H46.5C39.8333 125.333 34 119.5 34 112.833V96.1667C34 89.5001 39.8333 83.6667 46.5 83.6667H63.1667C69.8333 83.6667 75.6667 89.5001 75.6667 96.1667V112.833C75.6667 119.5 69.8333 125.333 63.1667 125.333ZM46.5 92.0001C44 92.0001 42.3333 93.6667 42.3333 96.1667V112.833C42.3333 115.333 44 117 46.5 117H63.1667C65.6667 117 67.3333 115.333 67.3333 112.833V96.1667C67.3333 93.6667 65.6667 92.0001 63.1667 92.0001H46.5Z" fill="#364B9D"/>
<path d="M179.833 100.333H88.1667C85.6667 100.333 84 98.6667 84 96.1667C84 93.6667 85.6667 92.0001 88.1667 92.0001H179.833C182.333 92.0001 184 93.6667 184 96.1667C184 98.6667 182.333 100.333 179.833 100.333Z" fill="url(#paint3_linear)"/>
<path d="M229.833 117H88.1667C85.6667 117 84 115.333 84 112.833C84 110.333 85.6667 108.667 88.1667 108.667H229.833C232.333 108.667 234 110.333 234 112.833C234 115.333 232.333 117 229.833 117Z" fill="url(#paint4_linear)"/>
<path d="M29.1667 183.667H12.5C5.83333 183.667 0 177.833 0 171.167V154.5C0 147.833 5.83333 142 12.5 142H29.1667C35.8333 142 41.6667 147.833 41.6667 154.5V171.167C41.6667 177.833 35.8333 183.667 29.1667 183.667ZM12.5 150.333C10 150.333 8.33333 152 8.33333 154.5V171.167C8.33333 173.667 10 175.333 12.5 175.333H29.1667C31.6667 175.333 33.3333 173.667 33.3333 171.167V154.5C33.3333 152 31.6667 150.333 29.1667 150.333H12.5Z" fill="#364B9D"/>
<path d="M145.833 158.667H54.1667C51.6667 158.667 50 157 50 154.5C50 152 51.6667 150.333 54.1667 150.333H145.833C148.333 150.333 150 152 150 154.5C150 157 148.333 158.667 145.833 158.667Z" fill="url(#paint5_linear)"/>
<path d="M195.833 175.333H54.1667C51.6667 175.333 50 173.667 50 171.167C50 168.667 51.6667 167 54.1667 167H195.833C198.333 167 200 168.667 200 171.167C200 173.667 198.333 175.333 195.833 175.333Z" fill="url(#paint6_linear)"/>
<path d="M216.167 92.8334L191.167 67.8334C197 61.1667 200.333 52 200.333 42C200.333 18.6667 182 0.333374 158.667 0.333374C135.333 0.333374 117 18.6667 117 42C117 65.3334 135.333 83.6667 158.667 83.6667C168.667 83.6667 177.833 80.3334 184.5 74.5L209.5 99.5C210.333 100.333 211.167 100.333 212.833 100.333C214.5 100.333 215.333 100.333 216.167 99.5C217 97.8334 217 94.5001 216.167 92.8334ZM125.333 42C125.333 23.6667 140.333 8.66671 158.667 8.66671C177 8.66671 192 23.6667 192 42C192 60.3334 177 75.3334 158.667 75.3334C140.333 75.3334 125.333 60.3334 125.333 42Z" fill="#122261"/>
<path d="M137.833 44.5C140.134 44.5 142 42.6345 142 40.3334C142 38.0322 140.134 36.1667 137.833 36.1667C135.532 36.1667 133.667 38.0322 133.667 40.3334C133.667 42.6345 135.532 44.5 137.833 44.5Z" fill="#122261"/>
<defs>
<radialGradient id="paint0_radial" cx="0" cy="0" r="1" gradientUnits="userSpaceOnUse" gradientTransform="translate(69.5 49.5) rotate(-0.174154) scale(164.501 987.005)">
<stop stop-color="#446AFF"/>
<stop offset="1" stop-color="#446AFF" stop-opacity="0.38"/>
</radialGradient>
<radialGradient id="paint1_radial" cx="0" cy="0" r="1" gradientUnits="userSpaceOnUse" gradientTransform="translate(69.5 49.5) rotate(-0.174154) scale(164.501 987.005)">
<stop stop-color="#446AFF"/>
<stop offset="1" stop-color="#446AFF" stop-opacity="0.38"/>
</radialGradient>
<radialGradient id="paint2_radial" cx="0" cy="0" r="1" gradientUnits="userSpaceOnUse" gradientTransform="translate(69.5 49.5) rotate(-0.174154) scale(164.501 987.005)">
<stop stop-color="#446AFF"/>
<stop offset="1" stop-color="#446AFF" stop-opacity="0.38"/>
</radialGradient>
<linearGradient id="paint3_linear" x1="88.5" y1="100.5" x2="244" y2="100.5" gradientUnits="userSpaceOnUse">
<stop stop-color="#446AFF"/>
<stop offset="1" stop-color="#446AFF" stop-opacity="0.33"/>
</linearGradient>
<linearGradient id="paint4_linear" x1="88.5" y1="100.5" x2="244" y2="100.5" gradientUnits="userSpaceOnUse">
<stop stop-color="#446AFF"/>
<stop offset="1" stop-color="#446AFF" stop-opacity="0.33"/>
</linearGradient>
<linearGradient id="paint5_linear" x1="54.5" y1="158.833" x2="210" y2="158.833" gradientUnits="userSpaceOnUse">
<stop stop-color="#446AFF"/>
<stop offset="1" stop-color="#446AFF" stop-opacity="0.33"/>
</linearGradient>
<linearGradient id="paint6_linear" x1="54.5" y1="158.833" x2="210" y2="158.833" gradientUnits="userSpaceOnUse">
<stop stop-color="#446AFF"/>
<stop offset="1" stop-color="#446AFF" stop-opacity="0.33"/>
</linearGradient>
</defs>
</svg>
