<svg width="24" height="24" viewBox="0 0 24 24" fill="none" xmlns="http://www.w3.org/2000/svg">
<path d="M9.74737 0C8.4964 0 7.50034 1.01354 7.50034 2.24707V9.75H15.7472C16.3724 9.75 17.0307 10.0368 17.4303 10.4868C17.8299 10.9368 17.9943 11.4766 17.9943 11.9971C17.9943 12.5176 17.8299 13.0588 17.4303 13.5088C17.0307 13.9588 16.3724 14.2515 15.7472 14.2515H7.50034V21.7529C7.50034 23.001 8.51398 24 9.74737 24H21.753C22.9864 24 24 23.0011 24 21.7529V2.24707C24 1.01354 23.001 0 21.753 0H9.74737ZM3.96721 7.72265L0.218752 11.4712C-0.0729174 11.7629 -0.0729172 12.2371 0.218752 12.5288L3.96721 16.2773C4.67612 16.9863 5.73957 15.9228 5.03067 15.2139L2.56245 12.75H15.7531C16.752 12.75 16.752 11.25 15.7531 11.25H2.56685L5.03067 8.78613C5.71501 8.02332 4.67916 7.04087 3.96721 7.72265Z" fill="#EF6464"/>
</svg>
