<svg width="150" height="120" viewBox="0 0 150 120" fill="none" xmlns="http://www.w3.org/2000/svg">
<g clip-path="url(#clip0_590_514)">
<path d="M149.5 0.5H0.5V119.5H149.5V0.5Z" stroke="#0D775E"/>
<path d="M137.5 21.5H104.5C102.291 21.5 100.5 23.2909 100.5 25.5V96.5C100.5 98.7091 102.291 100.5 104.5 100.5H137.5C139.709 100.5 141.5 98.7091 141.5 96.5V25.5C141.5 23.2909 139.709 21.5 137.5 21.5Z" stroke="#0D775E"/>
<path d="M45.5 21.5H12.5C10.2909 21.5 8.5 23.2909 8.5 25.5V96.5C8.5 98.7091 10.2909 100.5 12.5 100.5H45.5C47.7091 100.5 49.5 98.7091 49.5 96.5V25.5C49.5 23.2909 47.7091 21.5 45.5 21.5Z" stroke="#0D775E"/>
<path d="M91.5 21.5H58.5C56.2909 21.5 54.5 23.2909 54.5 25.5V96.5C54.5 98.7091 56.2909 100.5 58.5 100.5H91.5C93.7091 100.5 95.5 98.7091 95.5 96.5V25.5C95.5 23.2909 93.7091 21.5 91.5 21.5Z" stroke="#0D775E"/>
</g>
<defs>
<clipPath id="clip0_590_514">
<rect width="150" height="120" fill="white"/>
</clipPath>
</defs>
</svg>
