<svg width="150" height="120" viewBox="0 0 150 120" fill="none" xmlns="http://www.w3.org/2000/svg">
<g clip-path="url(#clip0_590_441)">
<path d="M145.5 0.5H4.5C2.29086 0.5 0.5 2.29086 0.5 4.5V115.5C0.5 117.709 2.29086 119.5 4.5 119.5H145.5C147.709 119.5 149.5 117.709 149.5 115.5V4.5C149.5 2.29086 147.709 0.5 145.5 0.5Z" stroke="#0D775E"/>
<path d="M124.5 86.5H108.5C106.291 86.5 104.5 88.2909 104.5 90.5V103.5C104.5 105.709 106.291 107.5 108.5 107.5H124.5C126.709 107.5 128.5 105.709 128.5 103.5V90.5C128.5 88.2909 126.709 86.5 124.5 86.5Z" stroke="#0D775E"/>
<path d="M96.5 86.5H80.5C78.2909 86.5 76.5 88.2909 76.5 90.5V103.5C76.5 105.709 78.2909 107.5 80.5 107.5H96.5C98.7091 107.5 100.5 105.709 100.5 103.5V90.5C100.5 88.2909 98.7091 86.5 96.5 86.5Z" stroke="#0D775E"/>
<path d="M124.5 61.5H108.5C106.291 61.5 104.5 63.2909 104.5 65.5V78.5C104.5 80.7091 106.291 82.5 108.5 82.5H124.5C126.709 82.5 128.5 80.7091 128.5 78.5V65.5C128.5 63.2909 126.709 61.5 124.5 61.5Z" stroke="#0D775E"/>
<path d="M68.5 61.5H24.5C22.2909 61.5 20.5 63.2909 20.5 65.5V103.5C20.5 105.709 22.2909 107.5 24.5 107.5H68.5C70.7091 107.5 72.5 105.709 72.5 103.5V65.5C72.5 63.2909 70.7091 61.5 68.5 61.5Z" stroke="#0D775E"/>
<path d="M96.5 61.5H80.5C78.2909 61.5 76.5 63.2909 76.5 65.5V78.5C76.5 80.7091 78.2909 82.5 80.5 82.5H96.5C98.7091 82.5 100.5 80.7091 100.5 78.5V65.5C100.5 63.2909 98.7091 61.5 96.5 61.5Z" stroke="#0D775E"/>
<path d="M68.5 11.5H52.5C50.2909 11.5 48.5 13.2909 48.5 15.5V28.5C48.5 30.7091 50.2909 32.5 52.5 32.5H68.5C70.7091 32.5 72.5 30.7091 72.5 28.5V15.5C72.5 13.2909 70.7091 11.5 68.5 11.5Z" stroke="#0D775E"/>
<path d="M40.5 11.5H24.5C22.2909 11.5 20.5 13.2909 20.5 15.5V28.5C20.5 30.7091 22.2909 32.5 24.5 32.5H40.5C42.7091 32.5 44.5 30.7091 44.5 28.5V15.5C44.5 13.2909 42.7091 11.5 40.5 11.5Z" stroke="#0D775E"/>
<path d="M124.5 11.5H80.5C78.2909 11.5 76.5 13.2909 76.5 15.5V53.5C76.5 55.7091 78.2909 57.5 80.5 57.5H124.5C126.709 57.5 128.5 55.7091 128.5 53.5V15.5C128.5 13.2909 126.709 11.5 124.5 11.5Z" stroke="#0D775E"/>
<path d="M68.5 35.5H52.5C50.2909 35.5 48.5 37.2909 48.5 39.5V52.5C48.5 54.7091 50.2909 56.5 52.5 56.5H68.5C70.7091 56.5 72.5 54.7091 72.5 52.5V39.5C72.5 37.2909 70.7091 35.5 68.5 35.5Z" stroke="#0D775E"/>
<path d="M40.5 36.5H24.5C22.2909 36.5 20.5 38.2909 20.5 40.5V53.5C20.5 55.7091 22.2909 57.5 24.5 57.5H40.5C42.7091 57.5 44.5 55.7091 44.5 53.5V40.5C44.5 38.2909 42.7091 36.5 40.5 36.5Z" stroke="#0D775E"/>
</g>
<defs>
<clipPath id="clip0_590_441">
<rect width="150" height="120" fill="white"/>
</clipPath>
</defs>
</svg>
