<svg width="150" height="120" viewBox="0 0 150 120" fill="none" xmlns="http://www.w3.org/2000/svg">
<g clip-path="url(#clip0_590_470)">
<path d="M145.5 0.5H4.5C2.29086 0.5 0.5 2.29086 0.5 4.5V115.5C0.5 117.709 2.29086 119.5 4.5 119.5H145.5C147.709 119.5 149.5 117.709 149.5 115.5V4.5C149.5 2.29086 147.709 0.5 145.5 0.5Z" stroke="#0D775E"/>
<path d="M124.5 77.5H108.5C106.291 77.5 104.5 79.2909 104.5 81.5V100.5C104.5 102.709 106.291 104.5 108.5 104.5H124.5C126.709 104.5 128.5 102.709 128.5 100.5V81.5C128.5 79.2909 126.709 77.5 124.5 77.5Z" stroke="#0D775E"/>
<path d="M40.5 77.5H24.5C22.2909 77.5 20.5 79.2909 20.5 81.5V100.5C20.5 102.709 22.2909 104.5 24.5 104.5H40.5C42.7091 104.5 44.5 102.709 44.5 100.5V81.5C44.5 79.2909 42.7091 77.5 40.5 77.5Z" stroke="#0D775E"/>
<path d="M68.5 77.5H52.5C50.2909 77.5 48.5 79.2909 48.5 81.5V100.5C48.5 102.709 50.2909 104.5 52.5 104.5H68.5C70.7091 104.5 72.5 102.709 72.5 100.5V81.5C72.5 79.2909 70.7091 77.5 68.5 77.5Z" stroke="#0D775E"/>
<path d="M96.5 77.5H80.5C78.2909 77.5 76.5 79.2909 76.5 81.5V100.5C76.5 102.709 78.2909 104.5 80.5 104.5H96.5C98.7091 104.5 100.5 102.709 100.5 100.5V81.5C100.5 79.2909 98.7091 77.5 96.5 77.5Z" stroke="#0D775E"/>
<path d="M124.5 46.5H108.5C106.291 46.5 104.5 48.2909 104.5 50.5V69.5C104.5 71.7091 106.291 73.5 108.5 73.5H124.5C126.709 73.5 128.5 71.7091 128.5 69.5V50.5C128.5 48.2909 126.709 46.5 124.5 46.5Z" stroke="#0D775E"/>
<path d="M40.5 46.5H24.5C22.2909 46.5 20.5 48.2909 20.5 50.5V69.5C20.5 71.7091 22.2909 73.5 24.5 73.5H40.5C42.7091 73.5 44.5 71.7091 44.5 69.5V50.5C44.5 48.2909 42.7091 46.5 40.5 46.5Z" stroke="#0D775E"/>
<path d="M96.5 46.5H52.5C50.2909 46.5 48.5 48.2909 48.5 50.5V69.5C48.5 71.7091 50.2909 73.5 52.5 73.5H96.5C98.7091 73.5 100.5 71.7091 100.5 69.5V50.5C100.5 48.2909 98.7091 46.5 96.5 46.5Z" stroke="#0D775E"/>
<path d="M68.5 15.5H24.5C22.2909 15.5 20.5 17.2909 20.5 19.5V38.5C20.5 40.7091 22.2909 42.5 24.5 42.5H68.5C70.7091 42.5 72.5 40.7091 72.5 38.5V19.5C72.5 17.2909 70.7091 15.5 68.5 15.5Z" stroke="#0D775E"/>
<path d="M124.5 15.5H80.5C78.2909 15.5 76.5 17.2909 76.5 19.5V38.5C76.5 40.7091 78.2909 42.5 80.5 42.5H124.5C126.709 42.5 128.5 40.7091 128.5 38.5V19.5C128.5 17.2909 126.709 15.5 124.5 15.5Z" stroke="#0D775E"/>
</g>
<defs>
<clipPath id="clip0_590_470">
<rect width="150" height="120" fill="white"/>
</clipPath>
</defs>
</svg>
