<svg width="162" height="122" viewBox="0 0 162 122" fill="none" xmlns="http://www.w3.org/2000/svg">
<path d="M153.411 1H8.76786C4.47779 1 1 3.60543 1 6.8194V115.181C1 118.395 4.47779 121 8.76786 121H153.411C157.701 121 161.179 118.395 161.179 115.181V6.8194C161.179 3.60543 157.701 1 153.411 1Z" stroke="#0D775E"/>
<path d="M32.607 13.5H54.4374V58.0833H11.4463V35.4444C11.4463 23.3249 20.9203 13.5 32.607 13.5Z" stroke="#0D775E"/>
<path d="M54.4374 85.0319V107.324H11.4463V85.0319C11.4463 72.7202 21.0702 62.7402 32.9418 62.7402C44.8135 62.7402 54.4374 72.7202 54.4374 85.0319Z" stroke="#0D775E"/>
<path d="M59.3257 62.7402H102.317V107.324H80.4864C68.7998 107.324 59.3257 97.4986 59.3257 85.3791V62.7402Z" stroke="#0D775E"/>
<path d="M128.366 62.7402H150.197V107.324H107.206V84.6847C107.206 72.5647 116.68 62.7402 128.366 62.7402Z" stroke="#0D775E"/>
<path d="M102.317 35.7917V58.0833H59.3257V35.7917C59.3257 23.4803 68.9498 13.5 80.8212 13.5C92.6927 13.5 102.317 23.4803 102.317 35.7917Z" stroke="#0D775E"/>
<path d="M107.206 13.5H129.036C140.723 13.5 150.197 23.3249 150.197 35.4444V58.0833H107.206V13.5Z" stroke="#0D775E"/>
</svg>
