<svg width="150" height="120" viewBox="0 0 150 120" fill="none" xmlns="http://www.w3.org/2000/svg">
<g clip-path="url(#clip0_590_506)">
<path d="M145.5 0.5H4.5C2.29086 0.5 0.5 2.29086 0.5 4.5V115.5C0.5 117.709 2.29086 119.5 4.5 119.5H145.5C147.709 119.5 149.5 117.709 149.5 115.5V4.5C149.5 2.29086 147.709 0.5 145.5 0.5Z" stroke="#0D775E"/>
<path d="M50.5 61.5H24.5C22.2909 61.5 20.5 63.2909 20.5 65.5V99.5C20.5 101.709 22.2909 103.5 24.5 103.5H50.5C52.7091 103.5 54.5 101.709 54.5 99.5V65.5C54.5 63.2909 52.7091 61.5 50.5 61.5Z" stroke="#0D775E"/>
<path d="M88.5 61.5H62.5C60.2909 61.5 58.5 63.2909 58.5 65.5V99.5C58.5 101.709 60.2909 103.5 62.5 103.5H88.5C90.7091 103.5 92.5 101.709 92.5 99.5V65.5C92.5 63.2909 90.7091 61.5 88.5 61.5Z" stroke="#0D775E"/>
<path d="M126.5 61.5H100.5C98.2909 61.5 96.5 63.2909 96.5 65.5V99.5C96.5 101.709 98.2909 103.5 100.5 103.5H126.5C128.709 103.5 130.5 101.709 130.5 99.5V65.5C130.5 63.2909 128.709 61.5 126.5 61.5Z" stroke="#0D775E"/>
<path d="M50.5 15.5H24.5C22.2909 15.5 20.5 17.2909 20.5 19.5V53.5C20.5 55.7091 22.2909 57.5 24.5 57.5H50.5C52.7091 57.5 54.5 55.7091 54.5 53.5V19.5C54.5 17.2909 52.7091 15.5 50.5 15.5Z" stroke="#0D775E"/>
<path d="M88.5 15.5H62.5C60.2909 15.5 58.5 17.2909 58.5 19.5V53.5C58.5 55.7091 60.2909 57.5 62.5 57.5H88.5C90.7091 57.5 92.5 55.7091 92.5 53.5V19.5C92.5 17.2909 90.7091 15.5 88.5 15.5Z" stroke="#0D775E"/>
<path d="M126.5 15.5H100.5C98.2909 15.5 96.5 17.2909 96.5 19.5V53.5C96.5 55.7091 98.2909 57.5 100.5 57.5H126.5C128.709 57.5 130.5 55.7091 130.5 53.5V19.5C130.5 17.2909 128.709 15.5 126.5 15.5Z" stroke="#0D775E"/>
</g>
<defs>
<clipPath id="clip0_590_506">
<rect width="150" height="120" fill="white"/>
</clipPath>
</defs>
</svg>
