<svg width="191" height="41" viewBox="0 0 191 41" fill="none" xmlns="http://www.w3.org/2000/svg">
<g filter="url(#filter0_b_2_2)">
<path d="M52.3682 25.4475C55.592 25.4475 58.3036 27.6347 59.1034 30.6056C59.2551 30.8384 59.3443 31.1154 59.344 31.4136V33.4329C59.344 34.2511 58.6807 34.9144 57.8626 34.9144H26.2837C24.5894 34.9144 23.4069 33.4749 21.35 33.4749C19.2931 33.4749 17.7694 34.9144 15.9119 34.9144H1.53887C0.790855 34.9144 0.192964 34.3663 0.0780258 33.6769C0.208602 32.4608 0.965734 25.8861 2.70988 19.2353L7.85031 7.0293C8.50249 7.0293 10.0481 7.8335 11.0132 11.0503C13.0907 13.798 19.8996 17.6448 30.5152 11.0503H30.7162L36.3456 16.0766L38.9593 18.2882L40.9698 20.0976L43.5835 22.1082L45.7951 23.7166C46.7854 24.4684 49.4865 25.8671 52.3682 25.4475Z" fill="white" fill-opacity="0.1"/>
</g>
<path d="M13.2763 13.5854C16.61 15.6514 24.3286 16.1399 30.7832 10.99C30.7832 10.99 28.8519 8.34151 24.4545 10.8516C22.1099 12.19 17.939 12.9805 15.5391 11.0839C13.1392 9.18725 12.4425 6.08496 9.59566 6.08496C8.42542 6.08496 7.7715 7.09752 7.7715 7.09752C10.7182 8.22527 9.94255 11.5194 13.2763 13.5854Z" fill="black"/>
<path d="M28.8904 19.5013C28.5096 20.1868 28.8151 21.051 29.5451 21.3374L29.5469 21.3382C30.1479 21.5738 30.8308 21.3294 31.1443 20.7654C32.4412 18.4317 34.6561 16.9693 35.948 16.2697C36.0762 16.2001 36.186 16.1097 36.2803 16.0075C35.5769 15.3831 34.9094 14.7836 34.2972 14.2292C32.6985 15.1516 30.3643 16.8486 28.8904 19.5013Z" fill="black"/>
<path d="M35.1788 22.0023C34.7391 22.6888 35.0352 23.6065 35.7942 23.9041C36.3603 24.1262 37.0155 23.9299 37.3413 23.4165C38.0184 22.3489 40.0607 20.6473 40.9675 20.0423C40.2895 19.4802 39.6067 18.9023 38.9322 18.3235C37.7046 19.2451 35.9503 20.7974 35.1788 22.0023Z" fill="black"/>
<path d="M43.587 22.1494C42.9094 22.7205 41.7519 23.714 41.5776 23.9055C40.9752 24.5673 41.2437 25.6333 42.0769 25.9601L42.0793 25.9611C42.5698 26.1535 43.134 26.0341 43.4893 25.645C43.6186 25.5035 45.5157 23.8996 45.6523 23.794C45.6786 23.7737 45.7005 23.7497 45.7247 23.7275C45.0606 23.2667 44.3405 22.7327 43.587 22.1494Z" fill="black"/>
<path d="M59.0254 30.6061C58.2255 27.6352 55.5139 25.448 52.2902 25.448H49.1097V29.9327C49.1097 29.9327 34.3655 32.784 30.7837 32.784C27.2018 32.784 25.0482 29.9327 21.3454 29.9327C17.6426 29.9327 15.2832 32.4762 12.0691 32.4762C8.85495 32.4762 7.0704 31.1167 7.0704 29.9446C7.0704 28.7726 7.37456 27.5586 7.77229 24.6919C8.15568 21.9287 5.52616 19.4144 2.63185 19.2358C0.887708 25.8866 0.130576 32.4613 0 33.6774C0.114938 34.3668 0.712829 34.9149 1.46084 34.9149H15.8339C17.6914 34.9149 19.215 33.4754 21.2719 33.4754C23.3288 33.4754 24.5113 34.9149 26.2057 34.9149H57.7845C58.6027 34.9149 59.266 34.2516 59.266 33.4335V31.4141C59.2662 31.1159 59.1771 30.8389 59.0254 30.6061Z" fill="black"/>
<path d="M71.83 14.244V13.1H78.584V14.244H71.83ZM71.83 20.734V19.59H78.364V20.734H71.83ZM71.192 13.1H72.402V28.5H71.192V13.1ZM82.1583 20.8C82.1583 22.076 82.4297 23.22 82.9723 24.232C83.5297 25.244 84.285 26.0433 85.2383 26.63C86.2063 27.202 87.3063 27.488 88.5383 27.488C89.7703 27.488 90.863 27.202 91.8163 26.63C92.7843 26.0433 93.5397 25.244 94.0823 24.232C94.625 23.22 94.8963 22.076 94.8963 20.8C94.8963 19.5093 94.625 18.3653 94.0823 17.368C93.5397 16.356 92.7843 15.564 91.8163 14.992C90.863 14.4053 89.7703 14.112 88.5383 14.112C87.3063 14.112 86.2063 14.4053 85.2383 14.992C84.285 15.564 83.5297 16.356 82.9723 17.368C82.4297 18.3653 82.1583 19.5093 82.1583 20.8ZM80.8823 20.8C80.8823 19.6707 81.073 18.6293 81.4543 17.676C81.8357 16.708 82.371 15.872 83.0603 15.168C83.7497 14.4493 84.5563 13.892 85.4803 13.496C86.419 13.1 87.4383 12.902 88.5383 12.902C89.6383 12.902 90.6503 13.1 91.5743 13.496C92.513 13.892 93.327 14.4493 94.0163 15.168C94.7057 15.872 95.241 16.708 95.6223 17.676C96.0037 18.6293 96.1943 19.6707 96.1943 20.8C96.1943 21.9293 96.0037 22.978 95.6223 23.946C95.241 24.8993 94.7057 25.7353 94.0163 26.454C93.327 27.158 92.513 27.708 91.5743 28.104C90.6503 28.5 89.6383 28.698 88.5383 28.698C87.4383 28.698 86.419 28.5 85.4803 28.104C84.5563 27.708 83.7497 27.158 83.0603 26.454C82.371 25.7353 81.8357 24.8993 81.4543 23.946C81.073 22.978 80.8823 21.9293 80.8823 20.8ZM99.4103 20.8C99.4103 22.076 99.6816 23.22 100.224 24.232C100.782 25.244 101.537 26.0433 102.49 26.63C103.458 27.202 104.558 27.488 105.79 27.488C107.022 27.488 108.115 27.202 109.068 26.63C110.036 26.0433 110.792 25.244 111.334 24.232C111.877 23.22 112.148 22.076 112.148 20.8C112.148 19.5093 111.877 18.3653 111.334 17.368C110.792 16.356 110.036 15.564 109.068 14.992C108.115 14.4053 107.022 14.112 105.79 14.112C104.558 14.112 103.458 14.4053 102.49 14.992C101.537 15.564 100.782 16.356 100.224 17.368C99.6816 18.3653 99.4103 19.5093 99.4103 20.8ZM98.1343 20.8C98.1343 19.6707 98.325 18.6293 98.7063 17.676C99.0876 16.708 99.623 15.872 100.312 15.168C101.002 14.4493 101.808 13.892 102.732 13.496C103.671 13.1 104.69 12.902 105.79 12.902C106.89 12.902 107.902 13.1 108.826 13.496C109.765 13.892 110.579 14.4493 111.268 15.168C111.958 15.872 112.493 16.708 112.874 17.676C113.256 18.6293 113.446 19.6707 113.446 20.8C113.446 21.9293 113.256 22.978 112.874 23.946C112.493 24.8993 111.958 25.7353 111.268 26.454C110.579 27.158 109.765 27.708 108.826 28.104C107.902 28.5 106.89 28.698 105.79 28.698C104.69 28.698 103.671 28.5 102.732 28.104C101.808 27.708 101.002 27.158 100.312 26.454C99.623 25.7353 99.0876 24.8993 98.7063 23.946C98.325 22.978 98.1343 21.9293 98.1343 20.8ZM114.06 14.244V13.1H123.366V14.244H119.318V28.5H118.108V14.244H114.06ZM127.374 15.85V13.1H134.26V15.85H127.374ZM127.374 21.922V19.304H134.04V21.922H127.374ZM125.35 13.1H128.386V28.5H125.35V13.1ZM137.145 13.1H140.291V25.75H146.429V28.5H137.145V13.1ZM151.031 25.002L151.405 22.516H158.797L159.171 25.002H151.031ZM155.057 18.094L152.747 23.396L152.813 24.1L150.789 28.5H147.247L155.057 12.198L162.867 28.5H159.303L157.323 24.232L157.367 23.44L155.057 18.094ZM168.036 21.328H171.358L176.374 28.5H172.656L168.036 21.328ZM164.538 13.1H167.684V28.5H164.538V13.1ZM166.452 15.784V13.1H169.708C170.925 13.1 171.959 13.3053 172.81 13.716C173.66 14.1267 174.313 14.6987 174.768 15.432C175.222 16.1653 175.45 17.0233 175.45 18.006C175.45 18.974 175.222 19.832 174.768 20.58C174.313 21.3133 173.66 21.8853 172.81 22.296C171.959 22.7067 170.925 22.912 169.708 22.912H166.452V20.404H169.51C170.067 20.404 170.544 20.316 170.94 20.14C171.35 19.9493 171.666 19.6853 171.886 19.348C172.106 18.996 172.216 18.578 172.216 18.094C172.216 17.61 172.106 17.1993 171.886 16.862C171.666 16.51 171.35 16.246 170.94 16.07C170.544 15.8793 170.067 15.784 169.51 15.784H166.452ZM180.204 28.5V25.838H187.97V28.5H180.204ZM180.204 15.762V13.1H187.97V15.762H180.204ZM180.204 21.636V19.018H187.53V21.636H180.204ZM178.18 13.1H181.216V28.5H178.18V13.1Z" fill="black"/>
<defs>
<filter id="filter0_b_2_2" x="-19.922" y="-12.9707" width="99.266" height="67.885" filterUnits="userSpaceOnUse" color-interpolation-filters="sRGB">
<feFlood flood-opacity="0" result="BackgroundImageFix"/>
<feGaussianBlur in="BackgroundImageFix" stdDeviation="10"/>
<feComposite in2="SourceAlpha" operator="in" result="effect1_backgroundBlur_2_2"/>
<feBlend mode="normal" in="SourceGraphic" in2="effect1_backgroundBlur_2_2" result="shape"/>
</filter>
</defs>
</svg>
