<svg width="60" height="57" viewBox="0 0 60 57" fill="none" xmlns="http://www.w3.org/2000/svg">
<path d="M37.1476 17.6994H19.5694C18.5977 17.6994 17.8115 16.9078 17.8115 15.9295V8.84997C17.8115 7.87169 18.5977 7.08008 19.5694 7.08008H37.1476C38.1192 7.08008 38.9055 7.87169 38.9055 8.84997V15.9295C38.9055 16.9078 38.1192 17.6994 37.1476 17.6994Z" fill="#FFD580"/>
<path d="M48.9373 0.51849C48.2507 -0.17283 47.1383 -0.17283 46.4517 0.51849L44.1788 2.80696L41.9059 0.51849C41.2193 -0.17283 40.1068 -0.17283 39.4202 0.51849C38.7336 1.20981 38.7336 2.32991 39.4202 3.02123L42.9359 6.56102C43.2792 6.90674 43.729 7.0796 44.1787 7.0796C44.6283 7.0796 45.0782 6.90674 45.4215 6.56102L48.9371 3.02123C49.6241 2.3298 49.6241 1.20981 48.9373 0.51849Z" fill="#F24973"/>
<path d="M45.4226 6.56102L48.9382 3.02123C49.6248 2.32992 49.6248 1.20981 48.9382 0.51849C48.2516 -0.17283 47.1392 -0.17283 46.4526 0.51849L44.1797 2.80696V7.0796C44.6296 7.0796 45.0793 6.90674 45.4226 6.56102Z" fill="#D92C49"/>
<path d="M51.2111 17.6982H37.1485C36.1768 17.6982 35.3906 16.9066 35.3906 15.9283V5.30895C35.3906 4.33068 36.1768 3.53906 37.1485 3.53906H51.2111C52.1827 3.53906 52.9689 4.33068 52.9689 5.30895V15.9283C52.9689 16.9066 52.1827 17.6982 51.2111 17.6982Z" fill="#8AE68A"/>
<path d="M51.211 3.54004H44.1797V17.6992H51.211C52.1826 17.6992 52.9688 16.9076 52.9688 15.9293V5.30993C52.9688 4.33165 52.1826 3.54004 51.211 3.54004Z" fill="#60BF80"/>
<path d="M10.5539 14.1587L7.68089 3.53978H1.75783C0.786218 3.53978 0 2.74817 0 1.76989C0 0.791614 0.786218 0 1.75783 0H9.02328C9.81641 0 10.5099 0.534035 10.7193 1.305L14.5508 15.4641L10.5539 14.1587Z" fill="#80334D"/>
<path d="M47.6945 46.0177H19.5693C18.6011 46.0177 17.8114 45.2243 17.8114 44.2478C17.8114 43.3334 18.4912 42.5764 19.3908 42.4865C20.3555 42.3897 21.0628 41.522 20.9632 40.5489C20.8705 39.5776 20.0053 38.9017 19.0406 38.9639C16.3352 39.2353 14.2959 41.5064 14.2959 44.2476C14.2959 47.1755 16.6615 49.5573 19.5694 49.5573H47.6946C48.6662 49.5573 49.4525 48.7657 49.4525 47.7874C49.4525 46.8091 48.6661 46.0177 47.6945 46.0177Z" fill="#80334D"/>
<path d="M47.6944 46.0176H37.1475V49.5574H47.6944C48.666 49.5574 49.4523 48.7657 49.4523 47.7875C49.4523 46.8092 48.666 46.0176 47.6944 46.0176Z" fill="#59243F"/>
<path d="M19.5693 42.4429C18.783 42.4429 18.0826 41.9157 17.8732 41.1396L10.5508 14.1592H58.2415C58.7565 14.1592 59.2474 14.3874 59.5839 14.7849C59.9169 15.1824 60.0611 15.7062 59.9753 16.2195L56.4596 37.4582C56.3292 38.248 55.6906 38.8495 54.8975 38.9291C14.637 42.9397 19.9914 42.4429 19.5693 42.4429Z" fill="#F24973"/>
<path d="M58.2414 14.1592H37.1475V40.7002C41.7636 40.2385 47.5668 39.6593 54.8974 38.9291C55.6906 38.8495 56.3291 38.2481 56.4595 37.4582L59.9752 16.2195C60.061 15.7061 59.9168 15.1824 59.5838 14.7849C59.2473 14.3874 58.7563 14.1592 58.2414 14.1592Z" fill="#D92C49"/>
<path d="M47.6944 56.636C44.7865 56.636 42.4209 54.2541 42.4209 51.3263C42.4209 48.3984 44.7865 46.0166 47.6944 46.0166C50.6023 46.0166 52.9679 48.3984 52.9679 51.3263C52.9679 54.2541 50.6023 56.636 47.6944 56.636Z" fill="#59243F"/>
<path d="M47.6937 53.0964C48.6647 53.0964 49.4519 52.304 49.4519 51.3265C49.4519 50.349 48.6647 49.5566 47.6937 49.5566C46.7227 49.5566 45.9355 50.349 45.9355 51.3265C45.9355 52.304 46.7227 53.0964 47.6937 53.0964Z" fill="#D9E5FF"/>
<path d="M23.085 56.636C20.1771 56.636 17.8115 54.2541 17.8115 51.3263C17.8115 48.3984 20.1771 46.0166 23.085 46.0166C25.9929 46.0166 28.3585 48.3984 28.3585 51.3263C28.3585 54.2541 25.9929 56.636 23.085 56.636Z" fill="#80334D"/>
<path d="M23.0843 53.0964C24.0554 53.0964 24.8425 52.304 24.8425 51.3265C24.8425 50.349 24.0554 49.5566 23.0843 49.5566C22.1133 49.5566 21.3262 50.349 21.3262 51.3265C21.3262 52.304 22.1133 53.0964 23.0843 53.0964Z" fill="#ECF2FF"/>
<path d="M47.6947 31.8586C46.7229 31.8586 45.9365 31.067 45.9365 30.0887V23.0091C45.9365 22.0309 46.7229 21.2393 47.6947 21.2393C48.6665 21.2393 49.4529 22.0309 49.4529 23.0091V30.0887C49.4529 31.067 48.6665 31.8586 47.6947 31.8586Z" fill="white"/>
<path d="M26.6 31.8586C25.6282 31.8586 24.8418 31.067 24.8418 30.0887V23.0091C24.8418 22.0309 25.6282 21.2393 26.6 21.2393C27.5718 21.2393 28.3581 22.0309 28.3581 23.0091V30.0887C28.3581 31.067 27.5718 31.8586 26.6 31.8586Z" fill="white"/>
<path d="M37.1488 31.8586C36.177 31.8586 35.3906 31.067 35.3906 30.0887V23.0091C35.3906 22.0309 36.177 21.2393 37.1488 21.2393C38.1206 21.2393 38.907 22.0309 38.907 23.0091V30.0887C38.907 31.067 38.1206 31.8586 37.1488 31.8586Z" fill="white"/>
<path d="M38.9056 30.0877V23.0082C38.9056 22.0299 38.1193 21.2383 37.1475 21.2383V31.8576C38.1193 31.8576 38.9056 31.066 38.9056 30.0877Z" fill="#E9ECF4"/>
</svg>
