<svg width="32" height="32" viewBox="0 0 32 32" fill="none" xmlns="http://www.w3.org/2000/svg">
<path d="M25.332 9.33268H21.332V7.99935C21.332 6.58486 20.7701 5.22831 19.7699 4.22811C18.7697 3.22792 17.4132 2.66602 15.9987 2.66602C14.5842 2.66602 13.2277 3.22792 12.2275 4.22811C11.2273 5.22831 10.6654 6.58486 10.6654 7.99935V9.33268H6.66536C6.31174 9.33268 5.9726 9.47316 5.72256 9.72321C5.47251 9.97325 5.33203 10.3124 5.33203 10.666L5.33203 25.3327C5.33203 26.3935 5.75346 27.411 6.5036 28.1611C7.25375 28.9113 8.27117 29.3327 9.33203 29.3327H22.6654C23.7262 29.3327 24.7436 28.9113 25.4938 28.1611C26.2439 27.411 26.6654 26.3935 26.6654 25.3327V10.666C26.6654 10.3124 26.5249 9.97325 26.2748 9.72321C26.0248 9.47316 25.6857 9.33268 25.332 9.33268ZM13.332 7.99935C13.332 7.2921 13.613 6.61383 14.1131 6.11373C14.6132 5.61363 15.2915 5.33268 15.9987 5.33268C16.7059 5.33268 17.3842 5.61363 17.8843 6.11373C18.3844 6.61383 18.6654 7.2921 18.6654 7.99935V9.33268H13.332V7.99935ZM23.9987 25.3327C23.9987 25.6863 23.8582 26.0254 23.6082 26.2755C23.3581 26.5255 23.019 26.666 22.6654 26.666H9.33203C8.97841 26.666 8.63927 26.5255 8.38922 26.2755C8.13917 26.0254 7.9987 25.6863 7.9987 25.3327L7.9987 11.9993H10.6654V13.3327C10.6654 13.6863 10.8058 14.0254 11.0559 14.2755C11.3059 14.5255 11.6451 14.666 11.9987 14.666C12.3523 14.666 12.6915 14.5255 12.9415 14.2755C13.1916 14.0254 13.332 13.6863 13.332 13.3327V11.9993H18.6654V13.3327C18.6654 13.6863 18.8058 14.0254 19.0559 14.2755C19.3059 14.5255 19.6451 14.666 19.9987 14.666C20.3523 14.666 20.6915 14.5255 20.9415 14.2755C21.1916 14.0254 21.332 13.6863 21.332 13.3327V11.9993L23.9987 11.9993V25.3327Z" fill="#403C39"/>
</svg>
