<svg width="104" height="31" viewBox="0 0 104 31" fill="none" xmlns="http://www.w3.org/2000/svg">
<g clip-path="url(#clip0_414_23)">
<path d="M3.22366 9.29372L13.2897 14.196C14.0516 14.5704 14.9484 14.5704 15.7103 14.196L25.7764 9.29372M14.6804 14.7907V28.1636M2 10.9665V20.0335C2 21.6172 2.85971 23.0807 4.25527 23.8726L12.2447 28.4061C13.6403 29.198 15.3597 29.198 16.7553 28.4061L24.7447 23.8726C26.1403 23.0807 27 21.6172 27 20.0335V10.9665C27 9.38275 26.1403 7.91928 24.7447 7.12739L16.7553 2.59392C15.3597 1.80203 13.6403 1.80203 12.2447 2.59392L4.25527 7.12739C2.85971 7.91928 2 9.38275 2 10.9665Z" stroke="#0D775E" stroke-width="2.5"/>
<path d="M51.2919 9.87695L47.6522 22.6355H44.5724L42.1273 13.551L39.5702 22.6355L36.5091 22.6538L33 9.87695H35.7998L38.0956 19.784L40.7461 9.87695H43.6578L46.159 19.7292L48.4735 9.87695H51.2919Z" fill="black"/>
<path d="M52.737 12.8202C52.7992 11.6017 53.2347 10.6634 54.0435 10.0053C54.8648 9.33511 55.9412 9 57.2726 9C58.181 9 58.9587 9.15842 59.6058 9.47525C60.2528 9.77989 60.7381 10.2003 61.0617 10.7365C61.3976 11.2605 61.5656 11.8576 61.5656 12.5278C61.5656 13.2955 61.3603 13.9474 60.9497 14.4836C60.5515 15.0076 60.0724 15.361 59.5124 15.5438V15.6169C60.2342 15.8362 60.7941 16.2262 61.1923 16.7867C61.6029 17.3473 61.8083 18.0662 61.8083 18.9436C61.8083 19.6747 61.6341 20.3267 61.2856 20.8994C60.9497 21.4721 60.4457 21.923 59.7737 22.252C59.1142 22.5689 58.3179 22.7273 57.3846 22.7273C55.9785 22.7273 54.8337 22.38 53.9502 21.6854C53.0667 20.9908 52.6001 19.9672 52.5503 18.6146H55.0888C55.1137 19.2117 55.319 19.693 55.7047 20.0586C56.1029 20.412 56.6442 20.5887 57.3286 20.5887C57.9632 20.5887 58.4485 20.4181 58.7845 20.0769C59.1329 19.7235 59.3071 19.2726 59.3071 18.7242C59.3071 17.9931 59.0707 17.4691 58.5978 17.1523C58.125 16.8355 57.3908 16.677 56.3953 16.677H55.8541V14.575H56.3953C58.1623 14.575 59.0458 13.9962 59.0458 12.8385C59.0458 12.3145 58.884 11.9063 58.5605 11.6138C58.2494 11.3214 57.7952 11.1752 57.198 11.1752C56.6131 11.1752 56.1589 11.3336 55.8354 11.6504C55.5243 11.9551 55.3439 12.345 55.2941 12.8202H52.737Z" fill="black"/>
<path d="M63.6865 16.2569C63.6865 15.014 63.9727 13.899 64.5451 12.9119C65.1175 11.9127 65.8952 11.1328 66.8782 10.5723C67.8737 10.0117 68.975 9.73145 70.182 9.73145C71.6005 9.73145 72.8387 10.0666 73.8964 10.7368C74.9541 11.407 75.7256 12.3575 76.2109 13.5882H74.1763C73.8155 12.8205 73.2929 12.2295 72.6085 11.8152C71.9365 11.4009 71.1277 11.1937 70.182 11.1937C69.2736 11.1937 68.4586 11.4009 67.7368 11.8152C67.0151 12.2295 66.4489 12.8205 66.0383 13.5882C65.6277 14.3438 65.4224 15.2333 65.4224 16.2569C65.4224 17.2683 65.6277 18.1579 66.0383 18.9256C66.4489 19.6811 67.0151 20.266 67.7368 20.6804C68.4586 21.0947 69.2736 21.3018 70.182 21.3018C71.1277 21.3018 71.9365 21.1008 72.6085 20.6986C73.2929 20.2843 73.8155 19.6933 74.1763 18.9256H76.2109C75.7256 20.1442 74.9541 21.0886 73.8964 21.7588C72.8387 22.4168 71.6005 22.7459 70.182 22.7459C68.975 22.7459 67.8737 22.4717 66.8782 21.9233C65.8952 21.3628 65.1175 20.589 64.5451 19.6019C63.9727 18.6149 63.6865 17.4999 63.6865 16.2569Z" fill="#0D775E"/>
<path d="M78.1045 17.5914C78.1045 16.5678 78.3161 15.6721 78.7392 14.9044C79.1622 14.1245 79.7409 13.5213 80.475 13.0948C81.2216 12.6683 82.0491 12.4551 82.9575 12.4551C83.8534 12.4551 84.6312 12.6439 85.2907 13.0217C85.9502 13.3995 86.4417 13.8747 86.7652 14.4474V12.6196H88.4824V22.6363H86.7652V20.7719C86.4292 21.3568 85.9253 21.8442 85.2533 22.2342C84.5938 22.6119 83.8223 22.8008 82.9388 22.8008C82.0305 22.8008 81.2092 22.5814 80.475 22.1428C79.7409 21.7041 79.1622 21.0887 78.7392 20.2966C78.3161 19.5045 78.1045 18.6028 78.1045 17.5914ZM86.7652 17.6097C86.7652 16.8541 86.6097 16.1961 86.2986 15.6356C85.9875 15.075 85.5644 14.6485 85.0293 14.356C84.5067 14.0514 83.9281 13.8991 83.2935 13.8991C82.6589 13.8991 82.0802 14.0453 81.5576 14.3378C81.035 14.6302 80.6181 15.0567 80.307 15.6173C79.996 16.1778 79.8404 16.8359 79.8404 17.5914C79.8404 18.3591 79.996 19.0293 80.307 19.602C80.6181 20.1626 81.035 20.5952 81.5576 20.8998C82.0802 21.1923 82.6589 21.3385 83.2935 21.3385C83.9281 21.3385 84.5067 21.1923 85.0293 20.8998C85.5644 20.5952 85.9875 20.1626 86.2986 19.602C86.6097 19.0293 86.7652 18.3652 86.7652 17.6097Z" fill="#0D775E"/>
<path d="M93.0515 14.2461C93.3501 13.6733 93.7732 13.2286 94.3207 12.9117C94.8807 12.5949 95.5589 12.4365 96.3552 12.4365V14.1547H95.9073C94.0034 14.1547 93.0515 15.1661 93.0515 17.1889V22.636H91.353V12.6193H93.0515V14.2461Z" fill="#0D775E"/>
<path d="M100.388 13.9901V19.8941C100.388 20.3815 100.493 20.7288 100.705 20.936C100.917 21.1309 101.284 21.2284 101.806 21.2284H103.057V22.6359H101.526C100.581 22.6359 99.8712 22.4226 99.3983 21.9961C98.9255 21.5696 98.6891 20.8689 98.6891 19.8941V13.9901H97.3638V12.6192H98.6891V10.0967H100.388V12.6192H103.057V13.9901H100.388Z" fill="#0D775E"/>
</g>
<defs>
<clipPath id="clip0_414_23">
<rect width="104" height="31" fill="white"/>
</clipPath>
</defs>
</svg>
