<svg width="162" height="40" viewBox="0 0 162 40" fill="none" xmlns="http://www.w3.org/2000/svg">
<path d="M23.2743 39.0519C23.2743 39.0519 21.726 32.8727 22.6817 29.067C23.6374 25.2614 25.1497 24.4622 25.0005 23.8817C24.8517 23.3015 24.087 23.5743 23.8423 24.111C23.5977 24.6477 22.5971 25.8051 21.6774 25.6186C20.7578 25.4319 20.5105 21.8113 19.8378 21.4496C19.1652 21.0877 19.3987 22.7611 19.6598 24.2117C19.9209 25.6623 18.6331 24.8549 17.8297 23.1151C17.0263 21.3752 16.5566 21.8849 16.4679 22.1312C16.379 22.3775 18.2337 25.4811 18.0967 25.6297C17.9595 25.7785 15.6363 23.2048 15.4108 23.2785C15.1851 23.3521 14.8002 23.5557 15.3552 24.3663C15.9101 25.1768 17.6526 26.5396 17.5416 26.7672C17.4305 26.9948 15.9893 25.7547 15.4638 25.7255C14.9383 25.6963 15.1516 26.4067 16.094 27.0539C17.0364 27.701 19.3439 28.4077 19.4178 30.8538C19.4916 33.2996 18.8281 39.042 18.8281 39.042C18.8281 39.042 20.4664 41.1905 23.2743 39.0519Z" fill="white"/>
<path d="M21.7755 22.661C21.7755 22.661 15.863 14.3215 25.9011 5.33118C25.9011 5.33118 35.0907 15.7069 23.3317 22.756C23.3317 22.756 23.61 16.0657 24.9294 13.3402C24.9294 13.3402 21.3941 19.2695 21.7755 22.661Z" fill="url(#paint0_linear_8_384)"/>
<path d="M25.7695 23.4643C25.7695 23.4643 29.4006 16.1293 40.0003 19.154C40.0003 19.154 36.2294 29.4997 26.3343 24.5383C26.3343 24.5383 31.2939 22.0011 33.8045 21.7688C33.8045 21.7688 28.0682 21.8304 25.7695 23.4643Z" fill="url(#paint1_linear_8_384)"/>
<path d="M14.724 23.6102C14.724 23.6102 7.73885 28.319 0 20.6187C0 20.6187 8.66767 13.3327 14.7849 22.3976C14.7849 22.3976 9.11728 22.2658 6.79289 21.2733C6.79289 21.2733 11.8577 23.9502 14.724 23.6102Z" fill="url(#paint2_linear_8_384)"/>
<path d="M16.4776 21.3975C16.4776 21.3975 7.42995 18.4397 9.59833 6.64966C9.59833 6.64966 22.1857 9.36889 17.6608 20.6513C17.6608 20.6513 14.0528 15.6455 13.4569 12.9752C13.4569 12.9752 14.27 19.1366 16.4776 21.3975Z" fill="url(#paint3_linear_8_384)"/>
<path d="M30.6671 16.6896C30.6671 16.6896 30.4131 11.2303 37.7103 9.82233C37.7103 9.82233 38.8715 17.1143 31.3562 17.1574C31.3562 17.1574 33.4704 14.1487 34.8867 13.2512C34.8867 13.2512 31.4962 15.0229 30.6671 16.6896Z" fill="url(#paint4_linear_8_384)"/>
<path d="M8.25847 16.9099C8.25847 16.9099 2.94074 17.7115 0.794922 11.2911C0.794922 11.2911 7.81204 9.47987 8.64455 16.24C8.64455 16.24 5.47595 14.6542 4.44848 13.4728C4.44848 13.4728 6.53811 16.3379 8.25847 16.9099Z" fill="url(#paint5_linear_8_384)"/>
<path d="M18.6603 10.3873C18.6603 10.3873 14.4456 6.07921 19.3995 0C19.3995 0 25.7036 5.19937 19.569 10.3061C19.569 10.3061 19.0956 6.41096 19.5991 4.71873C19.5991 4.71873 18.1176 8.46036 18.6603 10.3873Z" fill="url(#paint6_linear_8_384)"/>
<path d="M26.0286 26.8176C26.0286 26.8176 31.4409 25.1069 34.8277 31.4629C34.8277 31.4629 27.8205 34.5066 25.7451 27.5801C25.7451 27.5801 29.3376 28.7184 30.6216 29.7832C30.6216 29.7832 27.9261 27.1323 26.0286 26.8176Z" fill="url(#paint7_linear_8_384)"/>
<path d="M14.9803 27.8071C14.9803 27.8071 12.8705 33.1785 5.21777 31.6451C5.21777 31.6451 7.24185 24.1437 14.5165 27.0814C14.5165 27.0814 11.1783 29.1496 9.42311 29.454C9.42311 29.454 13.4596 29.0886 14.9803 27.8071Z" fill="url(#paint8_linear_8_384)"/>
<path d="M63.3618 18.3427C63.3332 19.023 63.1935 19.6353 62.9429 20.1796C62.6994 20.7167 62.3735 21.1929 61.9653 21.6083C61.5643 22.0236 61.0988 22.3781 60.5688 22.6718C60.0389 22.9654 59.4731 23.2089 58.8716 23.4022C58.2772 23.5884 57.6613 23.7281 57.0239 23.8212C56.3866 23.9071 55.7635 23.9501 55.1548 23.9501C54.7537 23.9501 54.3062 23.9358 53.812 23.9071C53.3179 23.8785 52.7879 23.814 52.2222 23.7137L52.2651 28.0214L49.9985 28.1073V12.9071C50.7576 12.6565 51.4845 12.4667 52.1792 12.3378C52.881 12.2089 53.5005 12.1122 54.0376 12.0477C54.6678 11.9761 55.2586 11.9331 55.8101 11.9188C56.2756 11.9188 56.7876 11.9582 57.3462 12.037C57.9119 12.1086 58.4813 12.2375 59.0542 12.4237C59.6271 12.6099 60.1785 12.8606 60.7085 13.1757C61.2456 13.4908 61.7147 13.8882 62.1157 14.368C62.5239 14.8407 62.8426 15.4065 63.0718 16.0653C63.3009 16.717 63.3976 17.4761 63.3618 18.3427ZM55.8101 14.2928C55.4019 14.2928 54.9901 14.3072 54.5747 14.3358C54.2095 14.3645 53.8156 14.4182 53.3931 14.4969C52.9705 14.5686 52.5588 14.676 52.1577 14.8192L52.2007 21.5116C52.6447 21.5975 53.0815 21.6548 53.5112 21.6835C53.9481 21.7121 54.3563 21.7264 54.7358 21.7264C55.144 21.7264 55.5809 21.7085 56.0464 21.6727C56.5119 21.6298 56.9738 21.5581 57.4321 21.4579C57.8905 21.3505 58.3309 21.2037 58.7534 21.0175C59.1759 20.8313 59.5483 20.5949 59.8706 20.3085C60.1929 20.0149 60.4507 19.6639 60.644 19.2557C60.8374 18.8475 60.9341 18.3677 60.9341 17.8163C60.9341 17.2649 60.8123 16.7743 60.5688 16.3446C60.3325 15.9149 59.9888 15.5533 59.5376 15.2596C59.0936 14.9589 58.5565 14.7261 57.9263 14.5614C57.2961 14.3967 56.5907 14.3072 55.8101 14.2928ZM69.7104 28.5262C69.202 28.5191 68.7508 28.4331 68.3569 28.2684C67.9702 28.1037 67.6265 27.8925 67.3257 27.6346C67.0321 27.3697 66.7778 27.0689 66.563 26.7323C66.3553 26.3957 66.1799 26.0555 66.0366 25.7118C65.6929 24.8954 65.478 23.9716 65.3921 22.9403L65.6821 9.31921H67.9272C67.8914 10.594 67.8556 11.7649 67.8198 12.8319C67.7912 13.8918 67.7661 14.8586 67.7446 15.7323C67.7231 16.5988 67.7017 17.3759 67.6802 18.0634C67.6659 18.7509 67.6515 19.356 67.6372 19.8788C67.6086 21.1106 67.5871 22.0809 67.5728 22.7899C67.5871 23.4559 67.6838 24.0503 67.8628 24.5731C67.9344 24.7951 68.0275 25.0135 68.1421 25.2284C68.2638 25.4432 68.4071 25.6366 68.5718 25.8085C68.7437 25.9803 68.9442 26.12 69.1733 26.2274C69.4097 26.3277 69.6818 26.3814 69.9897 26.3885L69.7104 28.5262ZM80.0122 28.6766L80.1626 27.162C79.2889 27.7206 78.4295 28.1252 77.5845 28.3759C76.7466 28.6265 75.9624 28.7518 75.2319 28.7518C74.7163 28.7518 74.215 28.6838 73.728 28.5477C73.2482 28.4188 72.8221 28.2183 72.4497 27.9462C72.0845 27.6669 71.7873 27.316 71.5581 26.8934C71.3361 26.4637 71.2251 25.9589 71.2251 25.3788C71.2251 24.7987 71.311 24.2795 71.4829 23.8212C71.6548 23.3628 71.8911 22.9582 72.1919 22.6073C72.4927 22.2564 72.8472 21.9556 73.2554 21.705C73.6636 21.4543 74.1004 21.2502 74.5659 21.0927C75.0386 20.9351 75.5327 20.8205 76.0483 20.7489C76.564 20.6701 77.076 20.6307 77.5845 20.6307C78.0571 20.6307 78.4976 20.6486 78.9058 20.6844C79.314 20.7203 79.6756 20.7668 79.9907 20.8241C79.8976 20.466 79.783 20.1151 79.647 19.7714C79.5109 19.4205 79.3354 19.1089 79.1206 18.8368C78.9129 18.5575 78.6551 18.3319 78.3472 18.16C78.0392 17.9882 77.6704 17.9022 77.2407 17.9022C76.9614 17.9022 76.6427 17.9452 76.2847 18.0311C75.9266 18.1099 75.5327 18.2567 75.103 18.4716C74.6733 18.6864 74.2043 18.9836 73.6958 19.3632C73.1873 19.7356 72.6431 20.2154 72.063 20.8026L70.7632 19.2235C71.4507 18.579 72.1095 18.0526 72.7397 17.6444C73.37 17.2362 73.9608 16.9175 74.5122 16.6884C75.0708 16.452 75.5864 16.2909 76.0591 16.205C76.5389 16.119 76.9686 16.076 77.3481 16.076C78.007 16.076 78.5942 16.1906 79.1099 16.4198C79.6255 16.6418 80.0767 16.9497 80.4634 17.3436C80.8573 17.7303 81.1867 18.1887 81.4517 18.7186C81.7238 19.2414 81.9458 19.8072 82.1177 20.4159C82.2896 21.0175 82.4113 21.6441 82.4829 22.2958C82.5617 22.9475 82.6011 23.5956 82.6011 24.2401C82.6011 24.9276 82.5617 25.6652 82.4829 26.453C82.4041 27.2408 82.2824 28.1001 82.1177 29.0311L80.0122 28.6766ZM80.313 24.7665C80.3273 24.4084 80.3381 24.0539 80.3452 23.703C80.3524 23.3521 80.3345 22.9869 80.2915 22.6073C79.9406 22.4999 79.5718 22.4139 79.1851 22.3495C78.7983 22.285 78.4116 22.2528 78.0249 22.2528C77.3804 22.2528 76.7537 22.328 76.145 22.4784C75.5435 22.6288 75.0243 22.8472 74.5874 23.1337C74.1506 23.4201 73.8211 23.771 73.5991 24.1864C73.3843 24.6018 73.3413 25.0744 73.4702 25.6044C73.5705 26.0341 73.7638 26.3348 74.0503 26.5067C74.3439 26.6786 74.6948 26.7645 75.103 26.7645C75.5184 26.7645 75.966 26.6965 76.4458 26.5604C76.9328 26.4172 77.4126 26.2453 77.8853 26.0448C78.3651 25.8371 78.8162 25.6187 79.2388 25.3895C79.6613 25.1604 80.0194 24.9527 80.313 24.7665ZM85.6841 28.7948C85.6411 27.563 85.6017 26.4494 85.5659 25.454C85.5301 24.4514 85.4979 23.5562 85.4692 22.7684C85.4406 21.9807 85.4155 21.286 85.394 20.6844C85.3797 20.0829 85.3654 19.5637 85.3511 19.1268C85.3224 18.1027 85.3009 17.3436 85.2866 16.8495L87.7358 16.8065L87.7788 19.9003C88.0151 19.4921 88.2837 19.1089 88.5845 18.7509C88.8853 18.3856 89.2111 18.0634 89.562 17.7841C89.9129 17.5048 90.2853 17.2792 90.6792 17.1073C91.0802 16.9354 91.4992 16.8352 91.936 16.8065C92.4803 16.7707 92.953 16.8173 93.354 16.9462C93.7622 17.0751 94.1095 17.2541 94.396 17.4833C94.6825 17.7124 94.9188 17.9846 95.105 18.2997C95.2912 18.6076 95.438 18.9299 95.5454 19.2665C95.6528 19.5959 95.728 19.9253 95.771 20.2548C95.8211 20.5842 95.8534 20.885 95.8677 21.1571C95.9106 22.3889 95.9214 23.6278 95.8999 24.8739C95.8784 26.12 95.8534 27.4126 95.8247 28.7518L93.6226 28.6766C93.6799 27.5236 93.73 26.3706 93.7729 25.2177C93.8231 24.0647 93.8195 22.9009 93.7622 21.7264C93.7622 21.5975 93.7515 21.4328 93.73 21.2323C93.7157 21.0246 93.6763 20.8062 93.6118 20.577C93.5545 20.3479 93.4722 20.1223 93.3647 19.9003C93.2573 19.6711 93.1177 19.4742 92.9458 19.3094C92.7739 19.1376 92.5627 19.0087 92.312 18.9227C92.0685 18.8368 91.7821 18.8189 91.4526 18.869C90.8869 18.955 90.3104 19.3703 89.7231 20.1151C89.1431 20.8527 88.5164 21.9341 87.8433 23.3593C87.8719 24.5122 87.8934 25.4325 87.9077 26.12C87.9292 26.8003 87.9471 27.316 87.9614 27.6669C87.9757 28.0822 87.9865 28.3615 87.9937 28.5048L85.6841 28.7948ZM103.645 12.5311L103.57 17.3329L107.738 17.1932L107.577 19.202L103.548 19.3094L103.462 28.6766L101.196 28.7303L101.378 19.3739L97.6616 19.4598L97.7046 17.4833L101.421 17.3759L101.507 12.6708L103.645 12.5311ZM120.489 12.5526L120.435 14.4003L111.422 26.0663L120.306 25.9803L120.22 28.2469L108.737 28.2899L108.651 26.2596L117.578 14.5614L109.027 15.0233L108.887 12.7137L120.489 12.5526ZM133.541 22.7899C133.541 23.6923 133.39 24.5266 133.089 25.2928C132.789 26.0591 132.377 26.7251 131.854 27.2909C131.331 27.8566 130.719 28.2971 130.017 28.6122C129.315 28.9344 128.567 29.0956 127.772 29.0956C126.977 29.0956 126.232 28.9452 125.538 28.6444C124.843 28.3436 124.234 27.9175 123.711 27.3661C123.196 26.8075 122.788 26.1415 122.487 25.368C122.186 24.5946 122.036 23.7352 122.036 22.7899C122.036 21.8374 122.186 20.9745 122.487 20.201C122.788 19.4205 123.196 18.7544 123.711 18.203C124.234 17.6516 124.843 17.2255 125.538 16.9247C126.232 16.6239 126.977 16.4735 127.772 16.4735C128.567 16.4735 129.315 16.6346 130.017 16.9569C130.719 17.272 131.331 17.7124 131.854 18.2782C132.377 18.8368 132.789 19.5028 133.089 20.2762C133.39 21.0425 133.541 21.8804 133.541 22.7899ZM131.274 22.7684C131.274 22.2528 131.209 21.7336 131.081 21.2108C130.952 20.6809 130.748 20.2082 130.468 19.7928C130.189 19.3703 129.827 19.0266 129.383 18.7616C128.939 18.4966 128.402 18.3641 127.772 18.3641C127.163 18.3641 126.64 18.4966 126.204 18.7616C125.767 19.0266 125.409 19.3703 125.129 19.7928C124.85 20.2082 124.646 20.6809 124.517 21.2108C124.388 21.7336 124.324 22.2528 124.324 22.7684C124.324 23.2841 124.392 23.8033 124.528 24.326C124.671 24.8488 124.886 25.3215 125.172 25.744C125.459 26.1594 125.817 26.4996 126.247 26.7645C126.683 27.0295 127.192 27.162 127.772 27.162C128.381 27.162 128.903 27.0295 129.34 26.7645C129.784 26.4996 130.15 26.1594 130.436 25.744C130.722 25.3215 130.934 24.8488 131.07 24.326C131.206 23.8033 131.274 23.2841 131.274 22.7684ZM136.237 28.7948C136.194 27.563 136.154 26.4494 136.119 25.454C136.083 24.4514 136.051 23.5562 136.022 22.7684C135.993 21.9807 135.968 21.286 135.947 20.6844C135.932 20.0829 135.918 19.5637 135.904 19.1268C135.875 18.1027 135.854 17.3436 135.839 16.8495L138.289 16.8065L138.332 19.9003C138.568 19.4921 138.836 19.1089 139.137 18.7509C139.438 18.3856 139.764 18.0634 140.115 17.7841C140.466 17.5048 140.838 17.2792 141.232 17.1073C141.633 16.9354 142.052 16.8352 142.489 16.8065C143.033 16.7707 143.506 16.8173 143.907 16.9462C144.315 17.0751 144.662 17.2541 144.949 17.4833C145.235 17.7124 145.472 17.9846 145.658 18.2997C145.844 18.6076 145.991 18.9299 146.098 19.2665C146.206 19.5959 146.281 19.9253 146.324 20.2548C146.374 20.5842 146.406 20.885 146.42 21.1571C146.463 22.3889 146.474 23.6278 146.453 24.8739C146.431 26.12 146.406 27.4126 146.377 28.7518L144.175 28.6766C144.233 27.5236 144.283 26.3706 144.326 25.2177C144.376 24.0647 144.372 22.9009 144.315 21.7264C144.315 21.5975 144.304 21.4328 144.283 21.2323C144.268 21.0246 144.229 20.8062 144.165 20.577C144.107 20.3479 144.025 20.1223 143.917 19.9003C143.81 19.6711 143.67 19.4742 143.499 19.3094C143.327 19.1376 143.115 19.0087 142.865 18.9227C142.621 18.8368 142.335 18.8189 142.005 18.869C141.44 18.955 140.863 19.3703 140.276 20.1151C139.696 20.8527 139.069 21.9341 138.396 23.3593C138.425 24.5122 138.446 25.4325 138.46 26.12C138.482 26.8003 138.5 27.316 138.514 27.6669C138.528 28.0822 138.539 28.3615 138.546 28.5048L136.237 28.7948ZM154.681 27.0116C155.061 27.0116 155.437 26.9543 155.809 26.8397C156.181 26.718 156.525 26.5461 156.84 26.3241C157.155 26.0949 157.428 25.8121 157.657 25.4755C157.893 25.1389 158.065 24.7486 158.172 24.3046L160.246 24.7235C160.045 25.3752 159.762 25.966 159.397 26.496C159.032 27.0259 158.606 27.4807 158.119 27.8602C157.632 28.2398 157.095 28.5334 156.507 28.7411C155.927 28.9488 155.319 29.0526 154.681 29.0526C153.736 29.0526 152.898 28.9094 152.167 28.6229C151.437 28.3365 150.821 27.9318 150.32 27.4091C149.819 26.8863 149.435 26.2561 149.17 25.5184C148.913 24.7808 148.784 23.9572 148.784 23.0477C148.784 22.1525 148.934 21.3182 149.235 20.5448C149.543 19.7642 149.962 19.0874 150.492 18.5145C151.022 17.9416 151.645 17.4904 152.361 17.161C153.077 16.8316 153.85 16.6669 154.681 16.6669C155.426 16.6669 156.128 16.8137 156.787 17.1073C157.445 17.3938 158.029 17.7948 158.538 18.3104C159.046 18.8189 159.465 19.4205 159.794 20.1151C160.124 20.8098 160.332 21.5617 160.417 22.371L151.115 23.7567C151.165 24.2652 151.29 24.7235 151.491 25.1317C151.691 25.5328 151.945 25.8729 152.253 26.1522C152.569 26.4315 152.93 26.6464 153.338 26.7968C153.754 26.94 154.201 27.0116 154.681 27.0116ZM157.646 20.9852L157.582 20.7811C157.309 20.0721 156.933 19.5171 156.454 19.1161C155.981 18.715 155.39 18.5145 154.681 18.5145C154.38 18.5145 154.051 18.5682 153.693 18.6757C153.335 18.7759 152.987 18.9514 152.651 19.202C152.314 19.4527 152.01 19.7893 151.738 20.2118C151.473 20.6272 151.287 21.1464 151.179 21.7694L157.646 20.9852Z" fill="white"/>
<defs>
<linearGradient id="paint0_linear_8_384" x1="25.6093" y1="3.06643" x2="23.8279" y2="28.2796" gradientUnits="userSpaceOnUse">
<stop stop-color="#9DC44D"/>
<stop offset="1" stop-color="#5FA69B"/>
</linearGradient>
<linearGradient id="paint1_linear_8_384" x1="32.1391" y1="3.62776" x2="33.0378" y2="26.7983" gradientUnits="userSpaceOnUse">
<stop stop-color="#9DC44D"/>
<stop offset="1" stop-color="#5FA69B"/>
</linearGradient>
<linearGradient id="paint2_linear_8_384" x1="4.35696" y1="8.47848" x2="9.22295" y2="31.1937" gradientUnits="userSpaceOnUse">
<stop stop-color="#9DC44D"/>
<stop offset="1" stop-color="#5FA69B"/>
</linearGradient>
<linearGradient id="paint3_linear_8_384" x1="8.74754" y1="2.93446" x2="20.8147" y2="30.1731" gradientUnits="userSpaceOnUse">
<stop stop-color="#9DC44D"/>
<stop offset="1" stop-color="#5FA69B"/>
</linearGradient>
<linearGradient id="paint4_linear_8_384" x1="27.9288" y1="2.96893" x2="35.6283" y2="16.7291" gradientUnits="userSpaceOnUse">
<stop stop-color="#9DC44D"/>
<stop offset="1" stop-color="#5FA69B"/>
</linearGradient>
<linearGradient id="paint5_linear_8_384" x1="6.78087" y1="5.58395" x2="3.47466" y2="19.856" gradientUnits="userSpaceOnUse">
<stop stop-color="#9DC44D"/>
<stop offset="1" stop-color="#5FA69B"/>
</linearGradient>
<linearGradient id="paint6_linear_8_384" x1="20.0879" y1="-2.36067" x2="19.0648" y2="16.6768" gradientUnits="userSpaceOnUse">
<stop stop-color="#9DC44D"/>
<stop offset="1" stop-color="#5FA69B"/>
</linearGradient>
<linearGradient id="paint7_linear_8_384" x1="39.0642" y1="20.5798" x2="28.2381" y2="32.2504" gradientUnits="userSpaceOnUse">
<stop stop-color="#9DC44D"/>
<stop offset="1" stop-color="#5FA69B"/>
</linearGradient>
<linearGradient id="paint8_linear_8_384" x1="2.7473" y1="22.962" x2="14.6259" y2="34.5763" gradientUnits="userSpaceOnUse">
<stop stop-color="#9DC44D"/>
<stop offset="1" stop-color="#5FA69B"/>
</linearGradient>
</defs>
</svg>
